<svg xmlns="http://www.w3.org/2000/svg" xmlns:xlink="http://www.w3.org/1999/xlink" viewBox="0 0 322 322"><defs><style>.cls-1{fill:url(#linear-gradient);}</style><linearGradient id="linear-gradient" x1="64.61" y1="54.42" x2="273.56" y2="287.63" gradientTransform="matrix(1, 0, 0, -1, 0, 323)" gradientUnits="userSpaceOnUse"><stop offset="0" stop-color="#fff" stop-opacity="0"/><stop offset="0.28" stop-color="#c0e6f6" stop-opacity="0.15"/><stop offset="0.5" stop-color="#2dace2"/><stop offset="1" stop-color="#2e3192"/></linearGradient></defs><g id="Layer_2" data-name="Layer 2"><g id="Layer_1-2" data-name="Layer 1"><g id="Layer_2-2" data-name="Layer 2"><g id="Layer_1-2-2" data-name="Layer 1-2"><path class="cls-1" d="M161,0h0A161,161,0,0,0,0,161H0A161,161,0,0,0,161,322h0A161,161,0,0,0,322,161h0A161,161,0,0,0,161,0ZM294.81,161.69A131.82,131.82,0,0,1,163,293.51h0A131.82,131.82,0,0,1,31.17,161.7h0A131.82,131.82,0,0,1,163,29.87h0A131.82,131.82,0,0,1,294.81,161.69Z"/></g></g></g></g></svg>