<svg xmlns="http://www.w3.org/2000/svg" xmlns:xlink="http://www.w3.org/1999/xlink" viewBox="0 0 322 322"><defs><style>.cls-1{fill:url(#linear-gradient);filter:url(#luminosity-invert);}.cls-2{mask:url(#mask);}.cls-3{fill:#2b388f;}</style><linearGradient id="linear-gradient" x1="0.74" y1="161" x2="325.24" y2="161" gradientUnits="userSpaceOnUse"><stop offset="0" stop-color="#fff"/><stop offset="0.34" stop-color="#fff"/><stop offset="0.36" stop-color="#f4f4f4"/><stop offset="0.39" stop-color="#d8d8d8"/><stop offset="0.43" stop-color="#a9a9a9"/><stop offset="0.48" stop-color="#686868"/><stop offset="0.54" stop-color="#171717"/><stop offset="0.55"/><stop offset="0.84"/></linearGradient><filter id="luminosity-invert" filterUnits="userSpaceOnUse" color-interpolation-filters="sRGB"><feColorMatrix values="-1 0 0 0 1 0 -1 0 0 1 0 0 -1 0 1 0 0 0 1 0"/></filter><mask id="mask" x="0" y="-1.25" width="325.24" height="324.5" maskUnits="userSpaceOnUse"><rect class="cls-1" x="0.74" y="-1.25" width="324.5" height="324.5"/></mask></defs><g id="Layer_2" data-name="Layer 2"><g id="Layer_1-2" data-name="Layer 1"><g class="cls-2"><g id="Layer_2-2" data-name="Layer 2"><g id="Layer_1-2-2" data-name="Layer 1-2"><path class="cls-3" d="M161,0h0A161,161,0,0,0,0,161H0A161,161,0,0,0,161,322h0A161,161,0,0,0,322,161h0A161,161,0,0,0,161,0ZM294.81,161.69A131.82,131.82,0,0,1,163,293.51h0A131.82,131.82,0,0,1,31.17,161.7h0A131.82,131.82,0,0,1,163,29.87h0A131.82,131.82,0,0,1,294.81,161.69Z"/></g></g></g></g></g></svg>