<?xml version="1.0" encoding="utf-8"?>
<!-- Generator: Adobe Illustrator 25.4.1, SVG Export Plug-In . SVG Version: 6.00 Build 0)  -->
<svg version="1.1" id="_x34_" xmlns="http://www.w3.org/2000/svg" xmlns:xlink="http://www.w3.org/1999/xlink" x="0px" y="0px"
	 viewBox="0 0 800 800" style="enable-background:new 0 0 800 800;" xml:space="preserve">
<style type="text/css">
	.st0{fill:#F8F4E3;}
	.st1{fill:#626C6F;}
	.st2{fill:#C9965B;}
	.st3{fill:#E6AF73;}
	.st4{fill:#F1BE6F;}
	.st5{opacity:6.000000e-02;fill:#040000;enable-background:new    ;}
</style>
<g>
	<g>
		<path class="st0" d="M385.8,749.4h-0.9c-67.4-0.1-126.7-15.3-172.6-42.4c-28.9-17-52.6-38.8-69.8-64.4
			c-22.7-34.1-33.9-75.1-30.7-121.2c0.6-8.1,1.6-15.6,2.9-22.9c14.7-84.1,71.7-120.5,97.1-203.7c2.4-7.6,4.4-15.6,6.2-23.9
			c1.2-5.3,2-10.9,2.9-16.7c1.3-9.1,1.1-19.2-0.5-29.9c-0.1-1.2-0.4-2.2-0.5-3.4C209.9,157.1,160,75.5,160,75.5
			c54.7,1,55.3,43.3,111.3,43.3c56.6,0,56.6-43.3,113.2-43.3s56.6,43.3,113.2,43.3c17.2,0,29.1-4,39-9.6
			c19.4-10.8,30.9-27.6,58.3-32.4c4.8-1,10-1.3,15.9-1.3c0,0-2.4,3.8-6.2,10.4c-13.6,23.9-45.9,84.9-53.9,135
			c-0.1,1.2-0.4,2.2-0.5,3.4c-1.4,10.6-1.7,20.8-0.5,29.9c0.8,5.8,1.8,11.4,2.9,16.7c1.7,8.4,3.8,16.4,6.2,23.9
			c2,6.8,4.3,13.3,6.8,19.6c3.7,9.6,7.9,18.5,12.3,27c30.9,59.7,74.7,98.2,80.8,180C668.7,657,552.2,749.1,385.8,749.4z"/>
		<g>
			<g>
				<path class="st1" d="M469.3,528.6c-2.9-7.9-7.6-14.6-14.1-19.9c-5.2-4.8-11.4-8.5-18.6-11.2c-7.1-2.7-16.4-4.7-27.4-6.2
					l-2.1-0.4l-26.5-3.8c-5.2-0.5-9.5-1.6-13-3c-1.4-0.6-2.9-1.2-4.2-2c-1.7-1.1-3.3-2.1-4.8-3.4c-2.5-2.2-4.2-4.7-5.2-7.5
					c-1.1-2.7-1.4-5.4-1.4-8.4c0-7.6,3-14.3,8.9-19.7c0.8-0.7,1.7-1.5,2.6-2.1c5.9-4.1,14.4-6.2,25.3-6.2c5.9,0,12,0.5,18.4,1.6
					c2.1,0.4,4.3,0.6,6.5,1.2c8.8,1.7,16.9,5.9,24.4,12.6l29.6-27.1c-10.2-9.3-21.6-16-34-19.9c-8-2.5-16.8-4.3-26.4-5.2
					c-5.5-0.5-11.2-0.7-17.1-0.7c-9.5,0-18.4,0.8-26.6,2.7c-3,0.6-5.8,1.5-8.6,2.3c-10.4,3.4-19.1,8-26.3,13.9
					c-7.1,5.9-12.7,12.9-16.5,21.2c-3.9,8.2-5.7,17.2-5.7,27.2c0,18.9,5.7,33.4,17.2,43.6c5.4,4.8,11.8,8.7,19.3,11.6
					c5.8,2.4,12.6,4.3,20.6,5.7c2.1,0.4,4.4,0.7,6.7,1.1l28.7,4c3.2,0.5,5.9,1,8.3,1.5c2,0.4,3.8,0.8,5.1,1.3c3,1.1,5.7,2.7,8.1,4.7
					c5,4.5,7.5,10.6,7.5,18.3c0,9.1-3.7,15.8-10.8,20.6c-2.9,1.9-6.2,3.4-9.9,4.5c-6.1,1.8-13.4,2.7-22.2,2.7
					c-7.4,0-14.6-0.6-21.5-1.8c-3.3-0.6-6.7-1.3-9.9-2.2c-9.8-2.8-18.7-7.6-26.3-14.6l-30.4,27.9c11.8,11,24.7,18.7,39,22.9
					c8.6,2.5,17.6,4.3,27.6,5.3c6.8,0.7,13.9,1.1,21.2,1.1c7.9,0,15.3-0.6,22.6-1.8c4.3-0.6,8.7-1.6,12.7-2.8
					c10.9-3,20.3-7.4,28.3-13.2c8-5.7,14.3-12.7,18.8-21c4.4-8.3,6.7-17.9,6.7-28.5C473.8,545.4,472.3,536.5,469.3,528.6z"/>
			</g>
			<path class="st1" d="M407.2,398.7v37.7c-6.4-1-12.5-1.5-18.5-1.5c-10.9,0-19.3,2-25.3,6.1v-42.3c0-11.1,9.8-20.2,21.9-20.2
				c6,0,11.5,2.2,15.4,6c3.8,3.5,6.2,8.3,6.4,13.5C407.2,398.1,407.2,398.4,407.2,398.7z"/>
			<path class="st1" d="M407.2,490.9v40.9c-2.3-0.5-5.1-1-8.3-1.4l-28.7-4.1c-2.3-0.4-4.5-0.6-6.7-1.1v-43.1c1.3,0.7,2.7,1.4,4.1,2
				c3.5,1.4,7.8,2.5,13,3.1L407.2,490.9z"/>
			<path class="st1" d="M385,583.9c8.7,0,16.1-0.9,22.2-2.7v39.8c0,11.1-9.8,20.2-21.9,20.2c-11.9,0-21.6-8.8-21.8-19.7
				c0-0.2,0-0.3,0-0.4v-38.9C370.4,583.3,377.6,583.9,385,583.9z"/>
		</g>
		<path class="st2" d="M588.3,336.7c-8.6,5.2-18.3,7.8-28.5,7.8c-2.7,0-5.4-0.2-8.1-0.5c-11-1.5-21.9-5.8-32.5-12.9
			c-5-3.4-9.8-7.3-14.5-11.7c-0.4-0.4-0.8-0.8-1.2-1.2c-7-6.9-13.5-15-19-23.6c-0.4-0.5-0.7-1.1-1-1.6c-3.7-6-6.8-12.4-9.4-18.8
			c-3.5-8.7-5.8-17.2-6.9-25.5c-2-15.1,0-29.2,5.9-41.2c0.6-1.2,1.2-2.2,1.7-3.3c4-7.2,14.6-10.3,23.3-6.9c2.2,0.9,4.1,2,5.7,3.5
			c0.6,0.5,1.1,1.1,1.5,1.7c1.3,1.6,2.1,3.3,2.6,5.2c0.7,2.7,0.4,5.5-1,8.2c-0.1,0.3-0.2,0.4-0.4,0.7c-0.4,0.6-0.7,1.2-1,1.9
			c-4.3,8.8-5.1,19.6-3.1,30.6c0.5,2.8,1.2,5.7,2,8.4c0.4,1.2,0.8,2.4,1.2,3.6c4,11.6,10.6,23.1,18.7,32.6c0.5,0.5,1,1.1,1.3,1.6
			c4.8,5.4,10.1,10.2,15.6,14c10.7,7.1,19.5,8.7,26.1,4.7c7.8-4.7,18.8-3.3,24.5,3C597.7,323,596,332,588.3,336.7z"/>
		<g>
			<path class="st3" d="M552.8,270.9c-1.1-5.3-2-10.9-2.9-16.7c-1.3-9.1-1.1-19.2,0.5-29.9c0.1-1.2,0.4-2.2,0.5-3.4
				c-7,1.1-14.1,2.1-21.3,3c-9,1.2-18,2.2-27.1,3c-4.6,0.6-9.3,1.1-14,1.3c-7.1,0.7-14.5,1.3-21.8,1.9c-21.2,1.6-42.6,2.5-64.3,2.8
				c-5.7,0.2-11.4,0.2-17.1,0.2c-57.2,0-112.8-4.3-165.6-12.3c0.1,1.2,0.4,2.2,0.5,3.4c1.4,10.6,1.8,20.8,0.5,29.9
				c-0.8,5.8-1.7,11.4-2.9,16.7c-1.7,8.4-3.8,16.4-6.2,23.9c36.3,5.2,73.9,8.7,112.4,10.5c20.1,1,40.6,1.5,61.3,1.5
				c35.8,0,70.8-1.5,104.9-4.3c9.3-0.7,18.6-1.6,27.7-2.7c3.8-0.4,7.5-0.7,11.3-1.2c8-0.8,15.8-1.9,23.6-2.9c2-0.2,4.2-0.5,6.3-0.8
				C556.6,287.4,554.5,279.4,552.8,270.9z"/>
		</g>
		<path class="st4" d="M552.3,290.4c1,11,0.6,21.9-1.1,31.9c-0.1,0.5-0.2,1.2-0.3,1.7c-0.9,5-2.1,9.8-3.6,14.2
			c-4.1,12-10.4,21.6-18.5,28.5c-2,1.7-4.2,3.3-6.5,4.6c-8.6,5.2-18.5,7.6-29.1,7c-9.6-0.5-17.1-8.1-16.5-17.1
			c0.6-8.9,8.8-15.7,18.5-15.2c8.3,0.4,14.6-5.5,18.7-17.6c1.8-5.4,3-11.4,3.6-17.8c0.1-0.7,0.1-1.5,0.2-2.2c0.8-12.9-1-27.1-5-40.4
			c-0.4-1.3-0.9-2.8-1.3-4.1c-0.2-0.6-0.5-1.2-0.7-1.8c-1-2.5-1.9-5-3.1-7.4c-0.9-2-1.8-3.8-2.8-5.7c-2.6-4.8-5.5-9.2-8.9-13.2
			c-3-3.6-6.3-6.8-9.8-9.4c-0.9-0.6-1.7-1.2-2.6-1.9c-0.8-0.5-1.5-1-2.4-1.4c-2.2-1.2-4-2.9-5.4-4.9c-0.2-0.2-0.3-0.4-0.4-0.6
			c-1-1.5-1.6-3.1-2-4.8c-0.2-0.6-0.3-1.3-0.3-2c-0.3-3.4,0.5-6.8,2.6-10c5.1-7.6,15.9-9.9,24.1-5.2c2.3,1.3,4.5,2.8,6.7,4.3
			c5.9,4.1,11.3,9.1,16.2,14.7c5.7,6.5,10.7,14,14.9,22.1c3.7,7.1,6.7,14.8,9.3,22.9c0.2,0.6,0.4,1.2,0.6,1.8
			c2.5,8.7,4.2,17.8,5.1,26.7C552.2,289,552.3,289.7,552.3,290.4z"/>
	</g>
	<path class="st5" d="M578.1,341.3c3.5-1.2,6.9-2.7,10.2-4.6c7.8-4.7,9.4-13.7,3.8-20c-5.8-6.4-16.7-7.7-24.5-3
		c-0.5,0.4-1.2,0.4-1.7,0.6c-2.4-6.2-4.7-12.5-6.8-19.3c-2.4-7.6-4.4-15.6-6.2-23.9c-0.7-3.6-1.3-7.4-1.9-11.2L140.1,638.7
		c43.5,68.6,132.7,110.5,244.8,110.7h0.9c166.5-0.4,282.8-92.5,273.1-228C652.8,439.7,609.1,401.1,578.1,341.3z"/>
</g>
</svg>
