<?xml version="1.0" encoding="utf-8"?>
<!-- Generator: Adobe Illustrator 25.4.1, SVG Export Plug-In . SVG Version: 6.00 Build 0)  -->
<svg version="1.1" id="Layer_1" xmlns="http://www.w3.org/2000/svg" xmlns:xlink="http://www.w3.org/1999/xlink" x="0px" y="0px"
	 viewBox="0 0 800 800" style="enable-background:new 0 0 800 800;" xml:space="preserve">
<style type="text/css">
	.st0{fill-rule:evenodd;clip-rule:evenodd;fill:#02006A;stroke:#000000;stroke-miterlimit:10;}
	.st1{fill:#02006A;stroke:#02006A;stroke-width:33.3333;stroke-linecap:round;stroke-miterlimit:133.3333;}
	.st2{fill:#BFBFFF;}
</style>
<path class="st0" d="M177.8,93.5c-24,1-41.2,3.3-56.5,8.4C68.4,119.5,26.9,160.8,9.2,213.4C0,240.7,0,274.6,0,342.4
	c0,4.2,0,6.4,0.6,8.1c1.1,3.3,3.7,5.9,7,7c1.7,0.6,3.8,0.6,8.1,0.6h768.6c4.3,0,6.4,0,8.1-0.6c3.3-1.1,5.9-3.7,7-7
	c0.6-1.7,0.6-3.8,0.6-8.1c0-67.8,0-101.6-9.2-129c-17.7-52.6-59.2-93.8-112.1-111.5c-15.2-5.1-32.5-7.3-56.5-8.4v109.7
	c0,36.6-29.8,66.3-66.7,66.3s-66.7-29.7-66.7-66.3V92.7H311.1v110.5c0,36.6-29.8,66.3-66.7,66.3c-36.8,0-66.7-29.7-66.7-66.3V93.5z"
	/>
<path class="st1" d="M244.4,26.4v176.8"/>
<path class="st1" d="M555.6,26.4v176.8"/>
<path class="st2" d="M656,800H144.3C64.6,800,0,735.4,0,655.7V420.8c0-10.3,8.3-18.6,18.6-18.6h763.1c10.1,0,18.3,8.2,18.3,18.3V656
	C800,735.5,735.5,800,656,800z"/>
</svg>
