<?xml version="1.0" encoding="utf-8"?>
<!-- Generator: Adobe Illustrator 25.4.1, SVG Export Plug-In . SVG Version: 6.00 Build 0)  -->
<svg version="1.1" id="Layer_1" xmlns="http://www.w3.org/2000/svg" xmlns:xlink="http://www.w3.org/1999/xlink" x="0px" y="0px"
	 viewBox="0 0 32 32" style="enable-background:new 0 0 32 32;" xml:space="preserve">
<style type="text/css">
	.st0{fill:url(#SVGID_1_);}
	.st1{fill:#FFFFFF;}
</style>
<linearGradient id="SVGID_1_" gradientUnits="userSpaceOnUse" x1="16" y1="34" x2="16" y2="2" gradientTransform="matrix(1 0 0 -1 0 34)">
	<stop  offset="0" style="stop-color:#5AF575"/>
	<stop  offset="1" style="stop-color:#13BD2C"/>
</linearGradient>
<path class="st0" d="M0,11c0-3.8,0-5.8,0.7-7.2c0.7-1.3,1.7-2.3,3-3C5.2,0,7.1,0,11,0H21c3.8,0,5.8,0,7.2,0.7c1.3,0.7,2.3,1.7,3,3
	C32,5.2,32,7.1,32,11V21c0,3.8,0,5.8-0.7,7.2c-0.7,1.3-1.7,2.3-3,3C26.8,32,24.9,32,21,32H11c-3.8,0-5.8,0-7.2-0.7
	c-1.3-0.7-2.3-1.7-3-3C0,26.8,0,24.9,0,21V11z"/>
<path class="st1" d="M16,23c5,0,9-3.4,9-7.5S21,8,16,8s-9,3.4-9,7.5c0,2.6,1.6,4.9,4.1,6.3C11,22.4,10.7,23.3,10,24
	c1.4-0.3,2.5-0.8,3.4-1.3C14.2,22.9,15.1,23,16,23z"/>
</svg>
