<?xml version="1.0" encoding="utf-8"?>
<!-- Generator: Adobe Illustrator 25.4.1, SVG Export Plug-In . SVG Version: 6.00 Build 0)  -->
<svg version="1.1" id="Layer_1" xmlns="http://www.w3.org/2000/svg" xmlns:xlink="http://www.w3.org/1999/xlink" x="0px" y="0px"
	 viewBox="0 0 800 800" style="enable-background:new 0 0 800 800;" xml:space="preserve">
<style type="text/css">
	.st0{fill-rule:evenodd;clip-rule:evenodd;fill:#4A5FAB;}
</style>
<path class="st0" d="M241.7,79.6C285,70,337.5,66.7,400,66.7S515,70,558.3,79.6c43.7,9.7,80,26.3,107.9,54.2s44.5,64.2,54.2,107.9
	c9.6,43.3,12.9,95.8,12.9,158.3s-3.3,115-12.9,158.3c-9.7,43.7-26.3,80-54.2,107.9s-64.2,44.5-107.9,54.2
	C515,730,462.5,733.3,400,733.3s-115-3.3-158.3-12.9c-43.7-9.7-80-26.3-107.9-54.2S89.3,602,79.6,558.3C70,515,66.7,462.5,66.7,400
	S70,285,79.6,241.7c9.7-43.7,26.3-80,54.2-107.9S198,89.3,241.7,79.6z M366.8,266.8c0,18.4,14.9,33.3,33.3,33.3s33.3-14.9,33.3-33.3
	v-0.3c0-18.4-14.9-33.3-33.3-33.3s-33.3,14.9-33.3,33.3V266.8z M400.2,433.5c-18.4,0-33.3-14.9-33.3-33.3v-0.3
	c0-18.4,14.9-33.3,33.3-33.3s33.3,14.9,33.3,33.3v0.3C433.5,418.6,418.6,433.5,400.2,433.5z M400.2,566.8
	c-18.4,0-33.3-14.9-33.3-33.3v-0.3c0-18.4,14.9-33.3,33.3-33.3s33.3,14.9,33.3,33.3v0.3C433.5,551.9,418.6,566.8,400.2,566.8z"/>
</svg>
