<?xml version="1.0" encoding="utf-8"?>
<!-- Generator: Adobe Illustrator 25.4.1, SVG Export Plug-In . SVG Version: 6.00 Build 0)  -->
<svg version="1.1" id="Layer_1" xmlns="http://www.w3.org/2000/svg" xmlns:xlink="http://www.w3.org/1999/xlink" x="0px" y="0px"
	 viewBox="0 0 800 800" style="enable-background:new 0 0 800 800;" xml:space="preserve">
<style type="text/css">
	.st0{fill-rule:evenodd;clip-rule:evenodd;fill:#323232;}
</style>
<path class="st0" d="M210,15.5C262,4,325,0,400,0s138,4,190,15.5c52.4,11.6,96,31.5,129.5,65c33.5,33.5,53.4,77.1,65,129.5
	C796,262,800,325,800,400s-4,138-15.5,190c-11.6,52.4-31.5,96-65,129.5c-33.5,33.5-77.1,53.4-129.5,65C538,796,475,800,400,800
	s-138-4-190-15.5c-52.4-11.6-96-31.5-129.5-65C47,686,27.2,642.4,15.5,590C4,538,0,475,0,400s4-138,15.5-190
	c11.6-52.4,31.5-96,65-129.5S157.6,27.2,210,15.5z M360.2,240.2c0,22.1,17.9,40,40,40s40-17.9,40-40v-0.4c0-22.1-17.9-40-40-40
	s-40,17.9-40,40V240.2z M400.2,440.2c-22.1,0-40-17.9-40-40v-0.4c0-22.1,17.9-40,40-40s40,17.9,40,40v0.4
	C440.2,422.3,422.3,440.2,400.2,440.2z M400.2,600.2c-22.1,0-40-17.9-40-40v-0.4c0-22.1,17.9-40,40-40s40,17.9,40,40v0.4
	C440.2,582.3,422.3,600.2,400.2,600.2z"/>
</svg>
