<?xml version="1.0" encoding="utf-8"?>
<!-- Generator: Adobe Illustrator 25.4.1, SVG Export Plug-In . SVG Version: 6.00 Build 0)  -->
<svg version="1.1" id="Layer_1" xmlns="http://www.w3.org/2000/svg" xmlns:xlink="http://www.w3.org/1999/xlink" x="0px" y="0px"
	 viewBox="0 0 800 800" style="enable-background:new 0 0 800 800;" xml:space="preserve">
<style type="text/css">
	.st0{fill:#FFC10A;}
	.st1{fill:#FE9803;}
</style>
<g id="Files_Folder40">
</g>
<g id="Files_Folder39">
</g>
<g id="Files_Folder38">
</g>
<g id="Files_Folder37">
</g>
<g id="Files_Folder36">
</g>
<g id="Files_Folder35">
</g>
<g id="Files_Folder34">
</g>
<g id="Files_Folder33">
</g>
<g id="Files_Folder32">
</g>
<g id="Files_Folder31">
</g>
<g id="Files_Folder30">
</g>
<g id="Files_Folder29">
</g>
<g id="Files_Folder28">
</g>
<g id="Files_Folder27">
</g>
<g id="Files_Folder26">
</g>
<g id="Files_Folder25">
</g>
<g id="Files_Folder24">
</g>
<g id="Files_Folder23">
</g>
<g id="Files_Folder22">
</g>
<g id="Files_Folder21">
</g>
<g id="Files_Folder20">
</g>
<g id="Files_Folder19">
</g>
<g id="Files_Folder18">
</g>
<g id="Files_Folder17">
</g>
<g id="Files_Folder16">
</g>
<g id="Files_Folder15">
</g>
<g id="Files_Folder14">
</g>
<g id="Files_Folder13">
</g>
<g id="Files_Folder12">
</g>
<g id="Files_Folder11">
</g>
<g id="Files_Folder10">
</g>
<g id="Files_Folder09">
</g>
<g id="Files_Folder08">
</g>
<g id="Files_Folder07">
</g>
<g id="Files_Folder06">
</g>
<g id="Files_Folder05">
	<g>
		<path class="st0" d="M686.9,196l-8-9.3L533.3,16.8l-6.4-7.5C521.9,3.5,514.4,0,506.7,0H480H133.3c-14.7,0-26.7,12-26.7,26.7v746.7
			c0,14.7,12,26.7,26.7,26.7h533.3c14.7,0,26.7-12,26.7-26.7V240v-26.7C693.3,206.9,691.2,200.8,686.9,196z"/>
		<g>
			<path class="st1" d="M693.3,213.3V240H506.7c-14.7,0-26.7-12-26.7-26.7V0h26.7c7.7,0,15.2,3.5,20.3,9.3l6.4,7.5l145.6,169.9
				l8,9.3C691.2,200.8,693.3,206.9,693.3,213.3z"/>
		</g>
	</g>
	<g>
		<path class="st1" d="M363.6,586.7c-0.2,0-0.4,0-0.6,0c-8.3-0.2-16.1-4.2-21-11l-97-133.3c-8.7-11.9-6-28.6,5.9-37.3
			c11.9-8.7,28.6-6,37.2,5.9l76.4,105l147.9-185.9c9.1-11.5,25.9-13.5,37.4-4.3c11.5,9.2,13.4,25.9,4.3,37.5L384.5,576.6
			C379.5,583,371.8,586.7,363.6,586.7z"/>
	</g>
</g>
<g id="Files_Folder04">
</g>
<g id="Files_Folder03">
</g>
<g id="Files_Folder02">
</g>
<g id="Files_Folder01">
</g>
</svg>
