<?xml version="1.0" encoding="utf-8"?>
<!-- Generator: Adobe Illustrator 25.4.1, SVG Export Plug-In . SVG Version: 6.00 Build 0)  -->
<svg version="1.1" id="Layer_1" xmlns="http://www.w3.org/2000/svg" xmlns:xlink="http://www.w3.org/1999/xlink" x="0px" y="0px"
	 viewBox="0 0 800 800" style="enable-background:new 0 0 800 800;" xml:space="preserve">
<style type="text/css">
	.st0{fill:#00A1D4;enable-background:new    ;}
	.st1{fill:#292D32;}
</style>
<path class="st0" d="M600,657.2H440L262,775.6c-26.4,17.6-62-1.2-62-33.2v-85.2c-120,0-200-80-200-200v-240c0-120,80-200,200-200
	h400c120,0,200,80,200,200v240C800,577.2,720,657.2,600,657.2z"/>
<path class="st1" d="M400,403.7c-13.7,0-25-11.3-25-25v-7c0-38.7,28.3-57.7,39-65c12.3-8.3,16.3-14,16.3-22.7
	c0-16.7-13.7-30.3-30.3-30.3c-16.7,0-30.3,13.7-30.3,30.3c0,13.7-11.3,25-25,25c-13.7,0-25-11.3-25-25c0-44.3,36-80.3,80.3-80.3
	s80.3,36,80.3,80.3c0,38-28,57-38.3,64c-13,8.7-17,14.3-17,23.7v7C425,392.7,413.7,403.7,400,403.7z"/>
<path class="st1" d="M400,486.7c-14,0-25-11.3-25-25s11.3-25,25-25c13.7,0,25,11.3,25,25S414,486.7,400,486.7z"/>
</svg>
