<?xml version="1.0" encoding="utf-8"?>
<!-- Generator: Adobe Illustrator 25.4.1, SVG Export Plug-In . SVG Version: 6.00 Build 0)  -->
<svg version="1.1" id="Layer_1" xmlns="http://www.w3.org/2000/svg" xmlns:xlink="http://www.w3.org/1999/xlink" x="0px" y="0px"
	 viewBox="0 0 800 800" style="enable-background:new 0 0 800 800;" xml:space="preserve">
<style type="text/css">
	.st0{fill:#363436;}
</style>
<path class="st0" d="M0,750.4c0,13.9,4.8,25.6,14.4,35.2S36,800,50.4,800s26.1-4.8,35.2-14.4s13.9-21.3,14.4-35.2v-700
	c0-13.9-4.8-25.6-14.4-35.2S64.3,0.5,50.4,0s-25.9,4.5-36,15.2S-0.5,37.6,0,50.4V750.4L0,750.4z M150.4,450.4H400v100h400l-100-200
	l100-200H500v-100H150.4V450.4z M250.4,350.4v-200H400v200H250.4z M500,450.4v-200h138.4l-50.4,100l50.4,100H500z"/>
</svg>
