<?xml version="1.0" encoding="utf-8"?>
<!-- Generator: Adobe Illustrator 25.4.1, SVG Export Plug-In . SVG Version: 6.00 Build 0)  -->
<svg version="1.1" id="Layer_1" xmlns="http://www.w3.org/2000/svg" xmlns:xlink="http://www.w3.org/1999/xlink" x="0px" y="0px"
	 viewBox="0 0 800 800" style="enable-background:new 0 0 800 800;" xml:space="preserve">
<style type="text/css">
	.st0{fill:#BF0005;}
	.st1{fill:#1F71FF;}
	.st2{fill:#0B008A;}
	.st3{fill:#FF7058;}
</style>
<path class="st0" d="M536.4,224.5c-5-20-13.3-39.9-23.3-58.2l20-46.6l-69.9-68.2l-46.6,20c-18.3-10-36.6-18.3-58.2-23.3L341.8,0
	h-98.1l-18.3,48.2c-20,5-39.9,13.3-58.2,23.3l-46.6-20l-68.2,68.2l20,46.6c-10,18.3-18.3,36.6-23.3,58.2L0.8,242.8V341l48.2,18.3
	c5,20,13.3,39.9,23.3,58.2l-20,46.6l69.9,68.2l46.6-20c18.3,10,36.6,18.3,58.2,23.3l18.3,48.2h96.5l18.3-48.2
	c20-5,39.9-13.3,58.2-23.3l46.6,20l69.9-68.2l-20-46.6c10-18.3,18.3-36.6,23.3-58.2l48.2-18.3v-98.1L536.4,224.5z M291.9,410.8
	c-66.5,0-119.8-53.2-119.8-119.8s53.2-119.8,119.8-119.8s119.8,53.2,119.8,119.8S358.4,410.8,291.9,410.8z"/>
<g>
	<path class="st1" d="M376.7,375.9c-46.6,46.6-121.4,46.6-168,0l-43.2,43.2c69.9,69.9,184.6,69.9,254.5,0s69.9-183,0-254.5
		l-43.2,43.2C423.3,254.5,423.3,329.3,376.7,375.9z"/>
	<path class="st1" d="M165.5,164.7c-69.9,69.9-69.9,183,0,254.5l43.2-43.2c-46.6-46.6-46.6-121.4,0-168s121.4-46.6,168,0l43.2-43.2
		C350.1,94.8,235.3,94.8,165.5,164.7z"/>
</g>
<path class="st2" d="M564.7,681.9c1.7-10,1.7-18.3,0-28.3l16.6-16.6l-16.6-41.6h-23.3c-5-6.7-13.3-13.3-20-20v-23.3l-41.6-16.6
	l-16.6,16.6c-10-1.7-18.3-1.7-28.3,0l-16.6-16.6l-41.6,16.6v23.3c-6.7,5-13.3,13.3-20,20h-23.3L316.8,637l16.6,16.6
	c-1.7,10-1.7,18.3,0,28.3l-16.6,16.6l16.6,41.6h23.3c5,6.7,13.3,13.3,20,20v23.3l41.6,16.6l16.6-16.6c10,1.7,18.3,1.7,28.3,0
	l16.6,16.6l41.6-16.6v-23.3c6.7-5,13.3-13.3,20-20h23.3l16.6-41.6L564.7,681.9z M431.6,716.8c-28.3-11.6-41.6-43.2-29.9-69.9
	c11.6-28.3,43.2-41.6,69.9-29.9c28.3,11.6,41.6,43.2,29.9,69.9C489.8,715.2,458.2,728.5,431.6,716.8z"/>
<path class="st3" d="M782.5,464c1.7-10,1.7-18.3,0-28.3l16.6-16.6l-16.6-41.6h-23.3c-5-6.7-13.3-13.3-20-20v-23.3l-41.6-16.6
	l-16.6,16.6c-10-1.7-18.3-1.7-28.3,0l-16.6-16.6l-41.6,16.6v23.3c-6.7,5-13.3,13.3-20,20h-23.3l-16.6,41.6l16.6,16.6
	c-1.7,10-1.7,18.3,0,28.3l-16.6,16.6l16.6,41.6h23.3c5,6.7,13.3,13.3,20,20v23.3l41.6,16.6l16.6-16.6c10,1.7,18.3,1.7,28.3,0
	l16.6,16.6l41.6-16.6v-23.3c6.7-5,13.3-13.3,20-20h23.3l16.6-41.6L782.5,464z M647.8,500.6c-28.3-11.6-41.6-43.2-29.9-69.9
	c11.6-28.3,43.2-41.6,69.9-29.9c28.3,11.6,41.6,43.2,29.9,69.9C707.7,499,676.1,512.3,647.8,500.6z"/>
</svg>
