<?xml version="1.0" encoding="utf-8"?>
<!-- Generator: Adobe Illustrator 25.4.1, SVG Export Plug-In . SVG Version: 6.00 Build 0)  -->
<svg version="1.1" id="Layer_1" xmlns="http://www.w3.org/2000/svg" xmlns:xlink="http://www.w3.org/1999/xlink" x="0px" y="0px"
	 viewBox="0 0 800 800" style="enable-background:new 0 0 800 800;" xml:space="preserve">
<style type="text/css">
	.st0{fill:#334788;}
	.st1{fill:#292D32;}
</style>
<path class="st0" d="M20.4,435.6v-66.3c0-39.2,32-71.6,71.6-71.6c68.2,0,96.1-48.3,61.8-107.4c-19.6-33.9-7.9-78,26.4-97.6
	l65.2-37.3c29.8-17.7,68.2-7.2,85.9,22.6l4.1,7.2c33.9,59.2,89.7,59.2,124,0l4.1-7.2c17.7-29.8,56.2-40.3,85.9-22.6l65.2,37.3
	c34.3,19.6,46,63.7,26.4,97.6c-34.3,59.2-6.4,107.4,61.8,107.4c39.2,0,71.6,32,71.6,71.6v66.3c0,39.2-32,71.6-71.6,71.6
	c-68.2,0-96.1,48.3-61.8,107.4c19.6,34.3,7.9,78-26.4,97.6l-65.2,37.3c-29.8,17.7-68.2,7.2-85.9-22.6l-4.1-7.2
	c-33.9-59.2-89.7-59.2-124,0l-4.1,7.2c-17.7,29.8-56.2,40.3-85.9,22.6l-65.2-37.3c-34.3-19.6-46-63.7-26.4-97.6
	c34.3-59.2,6.4-107.4-61.8-107.4C52.5,507.2,20.4,474.8,20.4,435.6z"/>
<path class="st1" d="M400,508.3c59.8,0,108.3-48.5,108.3-108.3S459.8,291.7,400,291.7S291.7,340.2,291.7,400S340.2,508.3,400,508.3z
	"/>
</svg>
