<svg xmlns="http://www.w3.org/2000/svg" version="1.1" xmlns:xlink="http://www.w3.org/1999/xlink" xmlns:svgjs="http://svgjs.com/svgjs" width="1440" height="560" preserveAspectRatio="none" viewBox="0 0 1440 560"><g mask="url(&quot;#SvgjsMask1000&quot;)" fill="none"><rect width="1440" height="560" x="0" y="0" fill="#0e2a47"></rect><path d="M -724.7050776767614,58 C -628.71,112.4 -436.71,327 -244.7050776767615,330 C -52.71,333 43.29,65.6 235.2949223232385,73 C 427.29,80.4 523.29,347.2 715.2949223232386,367 C 907.29,386.8 1050.35,156.4 1195.2949223232386,172 C 1340.24,187.6 1391.06,390.4 1440,445" stroke="rgba(51, 121, 194, 0.58)" stroke-width="2"></path><path d="M -953.0668518788476,209 C -857.07,233.8 -665.07,328.6 -473.0668518788476,333 C -281.07,337.4 -185.07,230.6 6.933148121152385,231 C 198.93,231.4 294.93,343.4 486.9331481211524,335 C 678.93,326.6 776.32,161.8 966.9331481211524,189 C 1157.55,216.2 1345.39,414.6 1440,471" stroke="rgba(51, 121, 194, 0.58)" stroke-width="2"></path><path d="M -361.9594135593777,394 C -265.96,345.8 -73.96,162.6 118.0405864406223,153 C 310.04,143.4 406.04,336.2 598.0405864406223,346 C 790.04,355.8 886.04,201.2 1078.0405864406223,202 C 1270.04,202.8 1485.65,358.6 1558.0405864406223,350 C 1630.43,341.4 1463.61,197.2 1440,159" stroke="rgba(51, 121, 194, 0.58)" stroke-width="2"></path><path d="M -958.1942621185018,465 C -862.19,405.4 -670.19,176.2 -478.1942621185018,167 C -286.19,157.8 -190.19,438 1.805737881498203,419 C 193.81,400 289.81,70.8 481.8057378814982,72 C 673.81,73.2 770.17,393.4 961.8057378814982,425 C 1153.44,456.6 1344.36,269 1440,230" stroke="rgba(51, 121, 194, 0.58)" stroke-width="2"></path></g><defs><mask id="SvgjsMask1000"><rect width="1440" height="560" fill="#ffffff"></rect></mask></defs></svg>