<?xml version="1.0" encoding="utf-8"?>
<!-- Generator: Adobe Illustrator 25.4.1, SVG Export Plug-In . SVG Version: 6.00 Build 0)  -->
<svg version="1.1" id="Layer_1" xmlns="http://www.w3.org/2000/svg" xmlns:xlink="http://www.w3.org/1999/xlink" x="0px" y="0px"
	 viewBox="0 0 800 800" style="enable-background:new 0 0 800 800;" xml:space="preserve">
<style type="text/css">
	.st0{fill:#1E1E1E;stroke:#1E1E1E;stroke-width:9;stroke-miterlimit:10;}
	.st1{fill:none;stroke:#282828;stroke-width:60;stroke-miterlimit:10;}
</style>
<path class="st0" d="M528.6,390c-16.6-12.6-37.8-19.3-59.4-18.9H329.8c-26.1,0.6-47.8-18.1-48.4-41.8c0-0.5,0-1.1,0-1.6
	c-0.2-2.2-0.2-4.5,0-6.7c3.9-21.3,24.6-36.7,48.4-35.9h137.3c23.1,0,42.9,15.2,46.7,35.9h44.6c-3.9-43.1-43.6-76.3-91.2-76.3h-47
	v-62H383v62h-53.2c-47.7,0-87.4,33.2-91.2,76.3c-0.1,2.2-0.1,4.5,0,6.7c0,45.7,40.8,82.8,91.2,82.8h140.9
	c26.1-0.6,47.8,18.1,48.4,41.8c0,0.4,0,0.7,0,1.1c0.3,3,0.3,6.1,0,9.2c-4.9,19.5-24,33.4-46.1,33.4H333.3
	c-22.1,0-41.2-13.9-46.1-33.4h-44.9c5.3,41.9,44.4,73.6,90.9,73.6H383v61.2h37.1v-61.2h50.5c46.5,0,85.6-31.7,90.9-73.6v-9.2
	C561.5,428.8,549.4,405.6,528.6,390z"/>
<path class="st1" d="M574.5,694.1H225.5c-57,0-103.2-46.2-103.2-103.2V209.1c0-57,46.2-103.2,103.2-103.2h349.1
	c57,0,103.2,46.2,103.2,103.2v381.9C677.7,647.9,631.5,694.1,574.5,694.1z"/>
</svg>
