<?xml version="1.0" encoding="utf-8"?>
<!-- Generator: Adobe Illustrator 25.4.1, SVG Export Plug-In . SVG Version: 6.00 Build 0)  -->
<svg version="1.1" id="Layer_1" xmlns="http://www.w3.org/2000/svg" xmlns:xlink="http://www.w3.org/1999/xlink" x="0px" y="0px"
	 viewBox="0 0 512 512" style="enable-background:new 0 0 512 512;" xml:space="preserve">
<style type="text/css">
	.st0{fill:#E21B1B;}
	.st1{fill:#13E900;}
	.st2{fill:#0A7FFF;}
	.st3{fill:#0A78FF;}
</style>
<path class="st0" d="M283.1,420.1v-16.1c26.3-14.9,35.5-48.2,20.6-74.5c-14.9-26.3-48.2-35.5-74.5-20.6
	c-26.3,14.9-35.5,48.2-20.6,74.5c4.9,8.6,12,15.8,20.6,20.6v16.1c-51,2.4-76.9,36.8-76.9,60v19h207.6v-19
	C359.9,456.9,334,422.4,283.1,420.1z"/>
<path class="st1" d="M464.1,412.6v-10.1c16.4-9.3,22.2-30.1,12.9-46.5c-9.3-16.4-30.1-22.2-46.5-12.9s-22.2,30.1-12.9,46.5
	c3,5.4,7.5,9.8,12.9,12.9v10.1c-31.8,1.5-47.9,23-47.9,37.4v11.9H512v-11.9C512,435.6,495.8,414.1,464.1,412.6z"/>
<path class="st2" d="M81.5,412.6v-10.1c16.4-9.3,22.2-30.1,12.9-46.5c-9.3-16.4-30.1-22.2-46.5-12.9s-22.2,30.1-12.9,46.5
	c3,5.4,7.5,9.8,12.9,12.9v10.1C16.2,414.1,0,435.6,0,450.1v11.9h129.5v-11.9C129.5,435.6,113.3,414.1,81.5,412.6z"/>
<polygon class="st0" points="254.2,214.8 254.2,272.6 332.3,214.8 "/>
<g>
	<path class="st3" d="M52.2,131.8h134.5c14.6,0,26.4,10.9,26.4,24.2v80.5c0,13.4-11.8,24.2-26.4,24.2H52.2
		c-14.6,0-26.4-10.9-26.4-24.2V156C25.8,142.7,37.6,131.8,52.2,131.8z"/>
	<polygon class="st3" points="68.1,260.8 68.1,297.8 122.5,260.8 	"/>
</g>
<g>
	<path class="st1" d="M486.5,153H370c-12.6,0-22.9,10.9-22.9,24.2v80.5c0,13.4,10.3,24.2,22.9,24.2h116.5
		c12.6,0,22.9-10.9,22.9-24.2v-80.5C509.4,163.9,499.1,153,486.5,153z"/>
	<polygon class="st1" points="472.8,282.1 472.8,319 425.6,282.1 	"/>
</g>
<path class="st0" d="M218.3,12.9h193c21,0,37.9,17,37.9,37.9v126c0,21-17,37.9-37.9,37.9h-193c-21,0-37.9-17-37.9-37.9v-126
	C180.3,29.9,197.3,12.9,218.3,12.9z"/>
</svg>
