<?xml version="1.0" encoding="iso-8859-1"?>
<!-- Uploaded to: SVG Repo, www.svgrepo.com, Generator: SVG Repo Mixer Tools -->
<svg height="800px" width="800px" version="1.1" id="Layer_1" xmlns="http://www.w3.org/2000/svg" xmlns:xlink="http://www.w3.org/1999/xlink" 
	 viewBox="0 0 512 512" xml:space="preserve">
<path style="fill:#36495E;" d="M323.74,111.802H205.097c-12.328,0-20.03-13.377-13.875-24.034l46.046-79.754
	c4.424-7.662,14.223-10.291,21.886-5.864l73.635,42.512c7.663,4.424,10.289,14.223,5.864,21.886
	c-3.912,6.776-4.138,15.007-0.604,22.02C343.408,99.206,335.668,111.802,323.74,111.802z"/>
<path style="fill:#2C3E50;" d="M338.653,66.55c4.425-7.663,1.799-17.462-5.864-21.886L259.154,2.15
	c-0.917-0.53-1.866-0.953-2.832-1.284c0.324,25.991,0.468,65.121,0.491,110.935h66.927c11.928,0,19.668-12.596,14.309-23.232
	C334.515,81.556,334.741,73.326,338.653,66.55z"/>
<path style="fill:#36495E;" d="M252.845,509.853l-138.138-79.754c-14.144-8.166-8.321-29.898,8.011-29.898h184.183
	c12.327,0,20.03,13.376,13.875,24.034l-46.046,79.754C270.291,511.678,260.476,514.259,252.845,509.853z"/>
<path style="fill:#2C3E50;" d="M306.902,400.202h-50.835c-0.193,42.969-0.391,81.469-0.551,110.871
	c7.119,2.523,15.28-0.265,19.217-7.083l46.046-79.754C326.931,413.578,319.228,400.202,306.902,400.202z"/>
<path style="fill:#6A82A1;" d="M485.651,174.523H26.348c-8.849,0-16.022-7.173-16.022-16.022v-41.358
	c0-20.614,16.771-37.385,37.385-37.385h416.579c20.614,0,37.385,16.772,37.385,37.385v41.358
	C501.674,167.35,494.5,174.523,485.651,174.523z"/>
<path style="fill:#36495E;" d="M464.288,79.757H256.775c0.057,28.491,0.054,60.742,0.007,94.766h228.869
	c8.849,0,16.022-7.173,16.022-16.022v-41.358C501.674,96.529,484.903,79.757,464.288,79.757z"/>
<path style="fill:#6A82A1;" d="M464.288,432.246H47.71c-20.615,0-37.385-16.772-37.385-37.385V236.176
	c0-8.849,7.173-16.022,16.022-16.022h459.305c8.849,0,16.022,7.173,16.022,16.022v158.684
	C501.674,415.475,484.903,432.246,464.288,432.246z"/>
<path style="fill:#36495E;" d="M485.651,220.154H256.697c-0.166,72.704-0.481,149.239-0.781,212.092h208.371
	c20.614,0,37.385-16.772,37.385-37.385V236.176C501.674,227.328,494.5,220.154,485.651,220.154z"/>
<path style="fill:#EEEEEE;" d="M501.674,252.199H10.325V142.478h491.349L501.674,252.199L501.674,252.199z"/>
<g>
	<path style="fill:#36495E;" d="M397.784,316.839h-283.57c-8.849,0-16.022-7.173-16.022-16.022c0-8.849,7.173-16.022,16.022-16.022
		h283.57c8.849,0,16.022,7.173,16.022,16.022S406.633,316.839,397.784,316.839z"/>
	<path style="fill:#36495E;" d="M204.242,367.604h-90.028c-8.849,0-16.022-7.173-16.022-16.022c0-8.849,7.173-16.022,16.022-16.022
		h90.028c8.849,0,16.022,7.173,16.022,16.022C220.265,360.431,213.092,367.604,204.242,367.604z"/>
</g>
<path style="fill:#BDBDBD;" d="M501.674,142.478h-244.86c-0.018,34.658-0.091,72.017-0.197,109.721h245.058V142.478z"/>
<path style="fill:#2C3E50;" d="M397.784,284.795H256.517c-0.036,10.729-0.072,21.427-0.111,32.045h141.378
	c8.849,0,16.022-7.173,16.022-16.022C413.806,291.969,406.633,284.795,397.784,284.795z"/>
</svg>