<?xml version="1.0" encoding="iso-8859-1"?>
<!-- Uploaded to: SVG Repo, www.svgrepo.com, Generator: SVG Repo Mixer Tools -->
<svg version="1.1" id="Layer_1" xmlns="http://www.w3.org/2000/svg" xmlns:xlink="http://www.w3.org/1999/xlink" 
	 viewBox="0 0 512 512" xml:space="preserve">
<path style="fill:#FFFFFF;" d="M256,508C116.824,508,4,395.176,4,256S116.824,4,256,4s252,112.824,252,252
	C507.84,395.112,395.112,507.84,256,508z"/>
<path style="fill:#CCCCCC;" d="M256,8c136.968,0,248,111.032,248,248S392.968,504,256,504S8,392.968,8,256
	C8.152,119.096,119.096,8.152,256,8 M256,0C114.616,0,0,114.616,0,256s114.616,256,256,256s256-114.616,256-256S397.384,0,256,0z"/>
<path d="M116.616,125.84h314.352l0,0v216.664c0,19.656-15.928,35.584-35.584,35.584l0,0H81.032l0,0V161.432
	c-0.008-19.656,15.92-35.584,35.576-35.592C116.608,125.84,116.616,125.84,116.616,125.84z"/>
<rect x="81.024" y="166.416" style="fill:#E21B1B;" width="349.944" height="50.416"/>
<rect x="126.472" y="256" style="fill:#999999;" width="115.344" height="16"/>
</svg>