<?xml version="1.0" encoding="utf-8"?>
<!-- Generator: Adobe Illustrator 25.4.1, SVG Export Plug-In . SVG Version: 6.00 Build 0)  -->
<svg version="1.1" id="Layer_1" xmlns="http://www.w3.org/2000/svg" xmlns:xlink="http://www.w3.org/1999/xlink" x="0px" y="0px"
	 viewBox="0 0 800 800" style="enable-background:new 0 0 800 800;" xml:space="preserve">
<style type="text/css">
	.st0{fill:#FFF9F1;}
	.st1{fill:#5DC995;}
	.st2{fill:#45A374;}
	.st3{fill:#A0CEEA;}
	.st4{fill:#D6D6D6;}
</style>
<g>
	<path class="st0" d="M168.8,800h462.5c93.2,0,168.8-68.4,168.8-152.7V228.7c0-84.4-75.5-152.7-168.8-152.7H168.8
		C75.5,75.9,0,144.3,0,228.7v418.6C0,731.6,75.5,800,168.8,800z"/>
	<path class="st1" d="M0,218.6v70h799.1v-70c0-78.5-70.9-142.6-157.6-142.6H157.6C70.9,75.9,0,140.1,0,218.6z"/>
	<ellipse class="st2" cx="276.9" cy="188.2" rx="49.4" ry="44.7"/>
	<ellipse class="st2" cx="523.1" cy="188.2" rx="49.4" ry="44.7"/>
	<path class="st0" d="M281.6,205.9h-8.4c-19.6,0-36.4-14.3-36.4-32.9V32.9c0-17.7,15.9-32.9,36.4-32.9h8.4
		c19.6,0,36.4,14.3,36.4,32.9V173C317,191.6,301.2,205.9,281.6,205.9z"/>
	<path class="st0" d="M526.8,205.9h-8.4c-19.6,0-36.4-14.3-36.4-32.9V32.9c0-17.7,15.9-32.9,36.4-32.9h8.4
		c19.6,0,36.4,14.3,36.4,32.9V173C563.2,191.6,547.3,205.9,526.8,205.9z"/>
	<g>
		<path class="st3" d="M223.8,390.7h-79.3c-10.3,0-18.6,7.6-18.6,16.9v71.7c0,9.3,8.4,16.9,18.6,16.9h79.3
			c10.3,0,18.6-7.6,18.6-16.9v-71.7C242.4,398.3,234,390.7,223.8,390.7z"/>
		<path class="st3" d="M223.8,560.3h-79.3c-10.3,0-18.6,7.6-18.6,16.9v71.7c0,9.3,8.4,16.9,18.6,16.9h79.3
			c10.3,0,18.6-7.6,18.6-16.9v-71.7C242.4,567.9,234,560.3,223.8,560.3z"/>
	</g>
	<g>
		<path class="st4" d="M349.7,430.4h303c12.1,0,21.4-8.4,21.4-19.4s-9.3-19.4-21.4-19.4h-303c-12.1,0-21.4,8.4-21.4,19.4
			C327.3,421.9,337.5,430.4,349.7,430.4z"/>
		<path class="st4" d="M349.7,496.2h165c12.1,0,21.4-8.4,21.4-19.4s-9.3-19.4-21.4-19.4h-165c-12.1,0-21.4,8.4-21.4,19.4
			C327.3,487.8,337.5,496.2,349.7,496.2z"/>
		<path class="st4" d="M652.7,560.3h-303c-12.1,0-21.4,8.4-21.4,19.4c0,11,9.3,19.4,21.4,19.4h303c12.1,0,21.4-8.4,21.4-19.4
			C674.1,569.6,664.8,560.3,652.7,560.3z"/>
		<path class="st4" d="M514.7,627h-165c-12.1,0-21.4,8.4-21.4,19.4c0,11,9.3,19.4,21.4,19.4h165c12.1,0,21.4-8.4,21.4-19.4
			C536.1,635.4,526.8,627,514.7,627z"/>
	</g>
</g>
</svg>
