<?xml version="1.0" encoding="iso-8859-1"?>
<!-- Uploaded to: SVG Repo, www.svgrepo.com, Transformed by: SVG Repo Mixer Tools -->
<svg fill="#000000" version="1.1" id="Layer_1" xmlns="http://www.w3.org/2000/svg" xmlns:xlink="http://www.w3.org/1999/xlink" 
	 viewBox="0 0 512 512" xml:space="preserve">
<g>
	<g>
		<g>
			<path d="M375.467,358.4H307.2c-4.719,0-8.533,3.823-8.533,8.533v51.2c0,4.71,3.814,8.533,8.533,8.533h68.267
				c4.719,0,8.533-3.823,8.533-8.533v-51.2C384,362.223,380.186,358.4,375.467,358.4z"/>
			<path d="M238.933,179.2v-68.267c0-4.71-3.814-8.533-8.533-8.533H128c-4.719,0-8.533,3.823-8.533,8.533V179.2
				c0,4.71,3.814,8.533,8.533,8.533h102.4C235.119,187.733,238.933,183.91,238.933,179.2z"/>
			<path d="M503.467,290.133h-25.6v-128c0-14.114-11.486-25.6-25.6-25.6H290.133V76.8c0-14.114-11.486-25.6-25.6-25.6H93.867
				c-14.114,0-25.6,11.486-25.6,25.6v145.067H25.6c-14.114,0-25.6,11.486-25.6,25.6v204.8c0,4.71,3.814,8.533,8.533,8.533h204.8
				h204.8h85.333c4.719,0,8.533-3.823,8.533-8.533v-153.6C512,293.956,508.186,290.133,503.467,290.133z M170.667,349.867
				c0,4.71-3.814,8.533-8.533,8.533h-102.4c-4.719,0-8.533-3.823-8.533-8.533V281.6c0-4.71,3.814-8.533,8.533-8.533h102.4
				c4.719,0,8.533,3.823,8.533,8.533V349.867z M196.267,221.867H85.333V76.8c0-4.702,3.823-8.533,8.533-8.533h170.667
				c4.71,0,8.533,3.831,8.533,8.533v61.193c-0.29,0.102-0.546,0.256-0.828,0.367c-0.478,0.188-0.93,0.41-1.391,0.623
				c-0.947,0.444-1.86,0.939-2.748,1.493c-0.418,0.256-0.836,0.512-1.237,0.794c-1.007,0.717-1.963,1.502-2.859,2.355
				c-0.188,0.179-0.401,0.333-0.58,0.512c-1.05,1.058-1.988,2.219-2.842,3.439c-0.23,0.341-0.427,0.717-0.648,1.067
				c-0.58,0.93-1.109,1.886-1.57,2.893c-0.213,0.469-0.401,0.939-0.589,1.417c-0.384,0.998-0.7,2.031-0.956,3.081
				c-0.119,0.469-0.256,0.922-0.341,1.399c-0.29,1.527-0.478,3.089-0.478,4.702V256h-25.6c-1.647,0-3.243,0.188-4.804,0.486
				c-0.512,0.094-0.99,0.265-1.493,0.393c-0.742,0.188-1.519,0.324-2.236,0.58v-9.993
				C221.867,233.353,210.381,221.867,196.267,221.867z M409.6,298.667v145.067H221.867V281.6c0-4.702,3.823-8.533,8.533-8.533
				h34.133h136.533c4.71,0,8.533,3.831,8.533,8.533V298.667z M409.6,230.4c0,4.71-3.814,8.533-8.533,8.533H332.8
				c-4.719,0-8.533-3.823-8.533-8.533v-51.2c0-4.71,3.814-8.533,8.533-8.533h68.267c4.719,0,8.533,3.823,8.533,8.533V230.4z
				 M494.933,443.733h-68.267V307.2h42.667h25.6V443.733z"/>
			<rect x="341.333" y="187.733" width="51.2" height="34.133"/>
			<rect x="68.266" y="290.133" width="85.333" height="51.2"/>
		</g>
	</g>
</g>
</svg>