<?xml version="1.0" encoding="utf-8"?>
<!-- Generator: Adobe Illustrator 25.4.1, SVG Export Plug-In . SVG Version: 6.00 Build 0)  -->
<svg version="1.1" id="Layer_1" xmlns="http://www.w3.org/2000/svg" xmlns:xlink="http://www.w3.org/1999/xlink" x="0px" y="0px"
	 viewBox="0 0 800 800" style="enable-background:new 0 0 800 800;" xml:space="preserve">
<style type="text/css">
	.st0{fill:none;stroke:#000000;stroke-width:66.6667;stroke-linecap:round;stroke-linejoin:round;stroke-miterlimit:133.3333;}
</style>
<circle class="st0" cx="400" cy="400" r="66.7"/>
<path class="st0" d="M666.7,333.3c36.8,0,66.7,29.8,66.7,66.7s-29.8,66.7-66.7,66.7"/>
<path class="st0" d="M133.3,333.3c-36.8,0-66.7,29.8-66.7,66.7s29.8,66.7,66.7,66.7"/>
<path class="st0" d="M591.1,597.6c18.4,31.9,7.5,72.7-24.4,91.1c-31.9,18.4-72.7,7.5-91.1-24.4"/>
<path class="st0" d="M324.4,135.7c-18.4-31.9-59.2-42.8-91.1-24.4c-31.9,18.4-42.8,59.2-24.4,91.1"/>
<path class="st0" d="M666.7,466.7c-33.3,0-75.1,1.5-93.5,33.3c-18.4,31.9-6.5,50,10.1,83.3"/>
<path class="st0" d="M216.7,216.7c16.7,33.3,28.5,51.4,10.1,83.3c-18.4,31.9-60.1,33.3-93.5,33.3"/>
<path class="st0" d="M475.6,135.7c18.4-31.9,59.2-42.8,91.1-24.4c31.9,18.4,42.8,59.2,24.4,91.1"/>
<path class="st0" d="M208.9,597.6c-18.4,31.9-7.5,72.7,24.4,91.1c31.9,18.4,72.7,7.5,91.1-24.4"/>
<path class="st0" d="M591.1,202.4c-16.7,28.9-36.3,65.7-17.9,97.6c18.4,31.9,40,30.7,77.2,32.9"/>
<path class="st0" d="M149.6,467.1c37.2,2.2,58.8,1,77.2,32.9c18.4,31.9-1.2,68.7-17.9,97.6"/>
<path class="st0" d="M324.4,135.7c16.7,28.9,38.8,64.3,75.6,64.3c36.8,0,46.6-19.3,67.1-50.4"/>
<path class="st0" d="M332.9,650.4c20.5-31.1,30.3-50.4,67.1-50.4c36.8,0,58.9,35.4,75.6,64.3"/>
</svg>
