<svg xmlns="http://www.w3.org/2000/svg" version="1.1" xmlns:xlink="http://www.w3.org/1999/xlink" xmlns:svgjs="http://svgjs.com/svgjs" width="1440" height="560" preserveAspectRatio="none" viewBox="0 0 1440 560"><g mask="url(&quot;#SvgjsMask1000&quot;)" fill="none"><rect width="1440" height="560" x="0" y="0" fill="#0e2a47"></rect><path d="M0,446.792C85.888,427.932,168.703,418.859,252.913,393.541C369.936,358.358,535.481,378.807,589.952,269.422C643.831,161.226,518.015,46.32,483.504,-69.517C455.117,-164.799,465.613,-272.138,405.104,-351.025C343.038,-431.942,248.658,-486.362,148.613,-506.128C52.784,-525.061,-40.878,-485.918,-134.366,-457.607C-227.053,-429.539,-327.877,-412.134,-394.348,-341.704C-461.939,-270.088,-475.899,-167.511,-498.597,-71.687C-523.451,33.24,-561.377,139.372,-532.937,243.384C-502.258,355.582,-444.697,481.389,-336.026,522.866C-226.514,564.664,-114.489,471.933,0,446.792" fill="#0b2239"></path><path d="M1440 966.053C1514.72 949.894 1532.682 845.476 1598.777 807.062 1670.052 765.637 1786.26 807.762 1831.231 738.669 1874.399 672.345 1815.413 585.075 1792.577 509.307 1772.932 444.127 1747.347 383.404 1707.5149999999999 328.197 1664.368 268.396 1621.3600000000001 203.192 1552.562 176.649 1481.597 149.26999999999998 1403.144 164.933 1329.064 182.187 1251.33 200.293 1157.289 210.73399999999998 1115.162 278.526 1072.79 346.71299999999997 1122.296 434.092 1122.643 514.371 1122.9279999999999 580.105 1098.818 644.335 1117.019 707.5 1136.983 776.783 1173.6770000000001 841.761 1229.965 886.821 1289.588 934.55 1365.352 982.196 1440 966.053" fill="#113255"></path></g><defs><mask id="SvgjsMask1000"><rect width="1440" height="560" fill="#ffffff"></rect></mask></defs></svg>