<?xml version="1.0" encoding="utf-8"?>
<!-- Generator: Adobe Illustrator 25.4.1, SVG Export Plug-In . SVG Version: 6.00 Build 0)  -->
<svg version="1.1" id="Layer_1" xmlns="http://www.w3.org/2000/svg" xmlns:xlink="http://www.w3.org/1999/xlink" x="0px" y="0px"
	 viewBox="0 0 800 800" style="enable-background:new 0 0 800 800;" xml:space="preserve">
<path d="M0,136.4V664c0,90.9,45.2,136,134.7,136h530.6c89.6,0,134.7-45.2,134.7-136V136.4C800,46.1,755.2,0,665.3,0H134.7
	C44.8,0,0,46.1,0,136.4z M70,137.7c0-43.5,23-67.7,68.3-67.7h523.7c45.2,0,68.3,24.4,68.3,67.7v525c0,43-23,67.4-68.3,67.4H138.2
	C93.1,730,70,705.6,70,662.7L70,137.7L70,137.7z M624.4,400.3c0-9.6-3.9-16.5-12.6-25.2L465,227.3c-5.7-5.7-13.5-8.3-22.6-8.3
	c-17.4,0-31.3,13.5-31.3,31.3c0,9.6,3.9,17.4,9.6,23l54.8,53.9l52.2,43.9l-91.6-3.5H209.5c-19.1,0-32.6,13.9-32.6,32.6
	s13.5,32.6,32.6,32.6h226.3l92.1-3.5l-52.6,44.4l-54.8,53.5c-6.1,5.7-9.6,13.5-9.6,23c0,17.8,13.9,31.7,31.3,31.7
	c9.1,0,17-3,22.6-8.7l146.9-147.3C620.1,417.7,624.4,409.7,624.4,400.3z"/>
</svg>
