<svg xmlns="http://www.w3.org/2000/svg" viewBox="0 0 288.46 67.46"><g id="Layer_2" data-name="Layer 2"><g id="Layer_1-2" data-name="Layer 1"><path d="M52.22,58a21.81,21.81,0,0,1-9.88,7A40.38,40.38,0,0,1,28,67.46a28.31,28.31,0,0,1-14.61-3.74A25,25,0,0,1,3.58,53,37.65,37.65,0,0,1,0,36.75V31.61Q0,16.73,7.12,8.36T27,0Q38,0,44.42,5.43t7.75,15.63H41Q39.1,9.2,27.24,9.2q-7.68,0-11.66,5.52T11.45,30.91V36q0,10.63,4.49,16.51t12.47,5.88q8.75,0,12.44-4V41.53H27.33V32.87H52.22Z"/><path d="M103.13,37.25h-27v20.2h31.52v9.11H64.75V.9h42.62v9.2H76.16V28.23h27Z"/><path d="M169.05,66.56H157.64L128.38,20V66.56H117V.9h11.41l29.35,46.76V.9h11.32Z"/><path d="M230.56.9V44.78q0,10.45-6.7,16.57T206,67.46q-11.28,0-17.9-6T181.5,44.73V.9h11.36V44.82q0,6.59,3.34,10.06T206,58.35q13.17,0,13.16-13.89V.9Z"/><path d="M277.05,49.65A8,8,0,0,0,274,43q-3-2.34-11-4.73a53.08,53.08,0,0,1-12.62-5.32q-9-5.64-9-14.7A16,16,0,0,1,247.9,5.14Q254.37,0,264.69,0a28.25,28.25,0,0,1,12.22,2.53,20.08,20.08,0,0,1,8.44,7.19,18.47,18.47,0,0,1,3.06,10.35H277.05a10.29,10.29,0,0,0-3.23-8q-3.22-2.91-9.22-2.91c-3.72,0-6.62.8-8.68,2.39a8,8,0,0,0-3.09,6.67,7.21,7.21,0,0,0,3.34,6q3.34,2.41,11,4.69a50.53,50.53,0,0,1,12.31,5.19,19.53,19.53,0,0,1,6.81,6.67,17.32,17.32,0,0,1,2.17,8.82,15.63,15.63,0,0,1-6.29,13q-6.3,4.85-17.07,4.85A32,32,0,0,1,252,64.82a22.09,22.09,0,0,1-9.29-7.28,18.16,18.16,0,0,1-3.31-10.82h11.4a10.62,10.62,0,0,0,3.7,8.65q3.71,3.08,10.6,3.07,6,0,8.95-2.41A7.79,7.79,0,0,0,277.05,49.65Z"/></g></g></svg>