<?xml version="1.0" encoding="utf-8"?>
<!-- Generator: Adobe Illustrator 25.4.1, SVG Export Plug-In . SVG Version: 6.00 Build 0)  -->
<svg version="1.1" id="Layer_1" xmlns="http://www.w3.org/2000/svg" xmlns:xlink="http://www.w3.org/1999/xlink" x="0px" y="0px"
	 viewBox="0 0 322.1 322.1" style="enable-background:new 0 0 322.1 322.1;" xml:space="preserve">
<style type="text/css">
	.st0{fill:url(#SVGID_1_);}
</style>
<g id="Layer_2_00000155107290051016458460000010775201221839773079_">
	<g id="Layer_1-2">
		
			<linearGradient id="SVGID_1_" gradientUnits="userSpaceOnUse" x1="64.6086" y1="54.9171" x2="273.5586" y2="288.1271" gradientTransform="matrix(1 0 0 -1 0 324)">
			<stop  offset="0" style="stop-color:#FFFFFF;stop-opacity:0"/>
			<stop  offset="0.285" style="stop-color:#C0E6F6;stop-opacity:0.1508"/>
			<stop  offset="0.5" style="stop-color:#2DACE2"/>
			<stop  offset="1" style="stop-color:#2E3192"/>
		</linearGradient>
		<path class="st0" d="M161,0.5L161,0.5C72.1,0.5,0,72.6,0,161.5l0,0c0,88.9,72.1,161,161,161l0,0c88.9,0,161-72.1,161-161l0,0
			C322,72.6,249.9,0.5,161,0.5z M294.8,162.2c0,72.8-59,131.8-131.8,131.8l0,0c-72.8,0-131.8-59-131.8-131.8c0,0,0,0,0,0l0,0
			c0-72.8,59-131.8,131.8-131.8c0,0,0,0,0,0l0,0C235.8,30.4,294.8,89.4,294.8,162.2z"/>
	</g>
</g>
</svg>
