<svg xmlns="http://www.w3.org/2000/svg" viewBox="0 0 419.3 227.21"><defs><style>.cls-1{fill:none;stroke:#000;stroke-miterlimit:10;stroke-width:5px;}.cls-2{fill:#167ce9;}</style></defs><g id="Layer_2" data-name="Layer 2"><g id="Layer_1-2" data-name="Layer 1"><path class="cls-1" d="M19.47,155.84a13.74,13.74,0,0,1-6.5-3.25,14,14,0,0,1-4.06-6.9,18.63,18.63,0,0,1-.41-6.91,108.05,108.05,0,0,1,2.85-19.08c1.55-6,2.5-7.56,4.06-8.53a7.21,7.21,0,0,1,6.9-.4,7.58,7.58,0,0,1,3.25,4.06,66.76,66.76,0,0,1,4.87,17.86c.85,6.63.6,9.16.41,10.56-.41,2.93-.82,5.64-2.85,8.12A13.27,13.27,0,0,1,19.47,155.84Z"/><path class="cls-1" d="M19.67,173.09V155.63"/><path class="cls-1" d="M39.57,160.51h97.86"/><path class="cls-1" d="M28.2,171.06H148.79"/><path class="cls-1" d="M169.5,173.5V70.36"/><path class="cls-1" d="M133.77,76.86h33.3"/><rect class="cls-1" x="69.61" y="126.8" width="38.57" height="32.08"/><rect class="cls-1" x="140.27" y="95.54" width="12.59" height="17.46" rx="5.83"/><rect class="cls-1" x="140.27" y="129.65" width="12.59" height="17.46" rx="5.83"/><rect class="cls-1" x="96.01" y="92.7" width="12.59" height="17.46" rx="5.83"/><rect class="cls-1" x="96.01" y="60.62" width="12.59" height="17.46" rx="5.83"/><rect class="cls-1" x="68.4" y="92.7" width="12.59" height="17.46" rx="5.83"/><rect class="cls-1" x="68.4" y="60.62" width="12.59" height="17.46" rx="5.83"/><path class="cls-1" d="M124.43,149.54V64.27"/><path class="cls-1" d="M130.93,58.59,88.29,33,46.06,58.59"/><path class="cls-1" d="M7.49,103.25V69.15"/><path class="cls-1" d="M43.63,77.27H10.74"/><path class="cls-1" d="M52.56,152.79V67.52"/><path class="cls-1" d="M36.32,112.19v-15c0-.4,0-.81,0-1.22a6.44,6.44,0,0,0,0-.81,3.08,3.08,0,0,0-.41-1.22,2.79,2.79,0,0,0-1.22-.4c-.14,0-.23,0-.81,0H26.17a4.11,4.11,0,0,0-.81,0,1.78,1.78,0,0,0-.82.4,4.78,4.78,0,0,0-.4,1.63c0,.24,0,.33,0,1.22v4.06"/><path class="cls-1" d="M83.42,143.45H93.57"/><path class="cls-1" d="M61.49,126.8h54"/><path class="cls-1" d="M106.3,13.5h8.48a2.37,2.37,0,0,1,.85.32,1.18,1.18,0,0,1,.22.77,3.38,3.38,0,0,1-.18.44l-.29.77-1.09,2.79,1.29,4,.24.77a5.28,5.28,0,0,1,.24.77,1.48,1.48,0,0,1-.22.85,2.93,2.93,0,0,1-.87.22h-1.44l-12,.05h-1.2a3.39,3.39,0,0,1-.9-.15,1.47,1.47,0,0,1-.35-.65c0-.21,0-.41,0-.62V20.94"/><circle class="cls-1" cx="88.69" cy="2.85" r="0.35"/><path class="cls-1" d="M89,8.11h14.3a2.17,2.17,0,0,1,2.17,2.17V17a2.32,2.32,0,0,1-2.32,2.32H89V8.11Z"/><path class="cls-1" d="M88.69,2.89v28.9"/><path class="cls-1" d="M88.29,126.8v33.71"/><path d="M227.44,141.57a17.71,17.71,0,0,1-8,5.71,32.83,32.83,0,0,1-11.65,1.94,22.91,22.91,0,0,1-11.86-3,20.32,20.32,0,0,1-8-8.7,30.62,30.62,0,0,1-2.91-13.2v-4.17q0-12.09,5.79-18.88T207,94.43q8.9,0,14.13,4.42t6.3,12.69h-9.08q-1.53-9.63-11.17-9.63-6.22,0-9.47,4.48t-3.35,13.15v4.1q0,8.62,3.65,13.41a12,12,0,0,0,10.12,4.77q7.11,0,10.11-3.22V128.16h-11v-7h20.22Z"/><path d="M268.78,124.68H246.89v16.41h25.59v7.4H237.62V95.17h34.61v7.47H246.89v14.72h21.89Z"/><path d="M322.32,148.49h-9.26l-23.77-37.83v37.83H280V95.17h9.26l23.84,38v-38h9.19Z"/><path d="M372.28,95.17V130.8q0,8.49-5.44,13.46t-14.49,5q-9.15,0-14.53-4.89t-5.39-13.57V95.17h9.23v35.67q0,5.34,2.71,8.16t8,2.82q10.69,0,10.7-11.28V95.17Z"/><path d="M410,134.75a6.44,6.44,0,0,0-2.47-5.42c-1.65-1.26-4.62-2.55-8.92-3.84a43.29,43.29,0,0,1-10.25-4.32q-7.29-4.58-7.29-11.94a13,13,0,0,1,5.26-10.62q5.25-4.17,13.64-4.18a23,23,0,0,1,9.92,2.06,16.19,16.19,0,0,1,6.85,5.84,15,15,0,0,1,2.49,8.4H410a8.36,8.36,0,0,0-2.62-6.54q-2.61-2.35-7.49-2.36a11.29,11.29,0,0,0-7,1.94,6.45,6.45,0,0,0-2.51,5.42,5.82,5.82,0,0,0,2.71,4.89q2.7,2,8.93,3.81a41.12,41.12,0,0,1,10,4.21,16,16,0,0,1,5.53,5.42,14.15,14.15,0,0,1,1.76,7.16,12.7,12.7,0,0,1-5.11,10.6q-5.12,3.94-13.86,3.94a26,26,0,0,1-10.64-2.14,17.78,17.78,0,0,1-7.54-5.92,14.69,14.69,0,0,1-2.7-8.79h9.27a8.64,8.64,0,0,0,3,7q3,2.49,8.61,2.49c3.22,0,5.64-.66,7.27-2A6.35,6.35,0,0,0,410,134.75Z"/><path class="cls-2" d="M15.7,219.47l9-27.81h6.79L18.73,227.21h-6L0,191.66H6.76Z"/><path class="cls-2" d="M74.49,227.21H68.34V191.66h6.15Z"/><path class="cls-2" d="M120.71,222.28h16.14v4.93H114.54V191.66h6.17Z"/><path class="cls-2" d="M180.21,222.28h16.14v4.93H174V191.66h6.17Z"/><path class="cls-2" d="M253.44,218.93H239.67l-2.88,8.28h-6.42l13.42-35.55h5.55l13.45,35.55h-6.45Zm-12-5h10.3l-5.15-14.74Z"/></g></g></svg>