<?xml version="1.0" encoding="utf-8"?>
<!-- Generator: Adobe Illustrator 25.4.1, SVG Export Plug-In . SVG Version: 6.00 Build 0)  -->
<svg version="1.1" id="Capa_1" xmlns="http://www.w3.org/2000/svg" xmlns:xlink="http://www.w3.org/1999/xlink" x="0px" y="0px"
	 viewBox="0 0 53 53" style="enable-background:new 0 0 53 53;" xml:space="preserve">
<style type="text/css">
	.st0{fill:#21418D;}
	.st1{fill:#E7ECED;}
</style>
<rect class="st0" width="53" height="53"/>
<path class="st1" d="M18.6,41.6l-7.9,4.3c-0.2,0.1-0.5,0.3-0.7,0.4c-2.5,1.8-3,5.1-3.2,6.7c6.5,0,13.1,0,19.6,0c6.6,0,13.2,0,19.8,0
	c-0.2-1.6-0.9-4.9-3.5-6.7c-0.2-0.2-0.5-0.3-0.7-0.4l-8.5-4.2c-1.1-0.5-1.8-1.7-1.8-2.9v-3.3c0.2-0.3,0.5-0.6,0.8-1
	c1.2-1.6,2-3.4,2.6-5.3c1.1-0.3,1.9-1.3,1.9-2.5v-3.5c0-0.8-0.3-1.5-0.9-2V16c0,0,1.1-8-9.8-8s-9.8,8-9.8,8v5.1
	c-0.5,0.5-0.9,1.2-0.9,2v3.5c0,0.9,0.5,1.8,1.2,2.2c0.9,3.9,3.2,6.6,3.2,6.6v3.2C20.3,39.9,19.6,41,18.6,41.6z"/>
</svg>
