<?xml version="1.0" encoding="utf-8"?>
<!-- Generator: Adobe Illustrator 25.4.1, SVG Export Plug-In . SVG Version: 6.00 Build 0)  -->
<svg version="1.1" id="Layer_1" xmlns="http://www.w3.org/2000/svg" xmlns:xlink="http://www.w3.org/1999/xlink" x="0px" y="0px"
	 viewBox="0 0 167 173.6" style="enable-background:new 0 0 167 173.6;" xml:space="preserve">
<style type="text/css">
	.st0{fill:none;stroke:#167CE9;stroke-width:5;stroke-miterlimit:10;}
</style>
<g id="Layer_2_00000127742529114627500790000000504751717951338384_">
	<g id="Layer_1-2">
		<path class="st0" d="M14.5,155.8c-2.4-0.5-4.6-1.6-6.5-3.2c-2-1.9-3.4-4.3-4.1-6.9c-0.6-2.3-0.7-4.6-0.4-6.9
			c0.4-6.4,1.3-12.8,2.8-19.1c1.5-6,2.5-7.6,4.1-8.5c2.1-1.3,4.7-1.4,6.9-0.4c1.5,0.9,2.7,2.4,3.2,4.1c2.4,5.7,4.1,11.7,4.9,17.9
			c0.9,6.6,0.6,9.2,0.4,10.6c-0.4,2.9-0.8,5.6-2.8,8.1C20.8,153.9,17.8,155.5,14.5,155.8z"/>
		<path class="st0" d="M14.7,173.1v-17.5"/>
		<path class="st0" d="M34.6,160.5h97.9"/>
		<path class="st0" d="M23.2,171.1h120.6"/>
		<path class="st0" d="M164.5,173.5V70.4"/>
		<path class="st0" d="M128.8,76.9h33.3"/>
		<rect x="64.6" y="126.8" class="st0" width="38.6" height="32.1"/>
		<path class="st0" d="M141.1,95.5h0.9c3.2,0,5.8,2.6,5.8,5.8v5.8c0,3.2-2.6,5.8-5.8,5.8h-0.9c-3.2,0-5.8-2.6-5.8-5.8v-5.8
			C135.3,98.2,137.9,95.5,141.1,95.5z"/>
		<path class="st0" d="M141.1,129.6h0.9c3.2,0,5.8,2.6,5.8,5.8v5.8c0,3.2-2.6,5.8-5.8,5.8h-0.9c-3.2,0-5.8-2.6-5.8-5.8v-5.8
			C135.3,132.3,137.9,129.6,141.1,129.6z"/>
		<path class="st0" d="M96.8,92.7h0.9c3.2,0,5.8,2.6,5.8,5.8v5.8c0,3.2-2.6,5.8-5.8,5.8h-0.9c-3.2,0-5.8-2.6-5.8-5.8v-5.8
			C91,95.3,93.6,92.7,96.8,92.7z"/>
		<path class="st0" d="M96.8,60.6h0.9c3.2,0,5.8,2.6,5.8,5.8v5.8c0,3.2-2.6,5.8-5.8,5.8h-0.9c-3.2,0-5.8-2.6-5.8-5.8v-5.8
			C91,63.2,93.6,60.6,96.8,60.6z"/>
		<path class="st0" d="M69.2,92.7h0.9c3.2,0,5.8,2.6,5.8,5.8v5.8c0,3.2-2.6,5.8-5.8,5.8h-0.9c-3.2,0-5.8-2.6-5.8-5.8v-5.8
			C63.4,95.3,66,92.7,69.2,92.7z"/>
		<path class="st0" d="M69.2,60.6h0.9c3.2,0,5.8,2.6,5.8,5.8v5.8c0,3.2-2.6,5.8-5.8,5.8h-0.9c-3.2,0-5.8-2.6-5.8-5.8v-5.8
			C63.4,63.2,66,60.6,69.2,60.6z"/>
		<path class="st0" d="M119.4,149.5V64.3"/>
		<path class="st0" d="M125.9,58.6L83.3,33L41.1,58.6"/>
		<path class="st0" d="M2.5,103.2V69.2"/>
		<path class="st0" d="M38.6,77.3H5.8"/>
		<path class="st0" d="M47.6,152.8V67.5"/>
		<path class="st0" d="M31.3,112.2v-15c0-0.4,0-0.8,0-1.2c0-0.3,0-0.5,0-0.8c0-0.4-0.2-0.8-0.4-1.2c-0.4-0.2-0.8-0.4-1.2-0.4
			c-0.1,0-0.2,0-0.8,0h-7.7c-0.3,0-0.5,0-0.8,0c-0.3,0.1-0.6,0.2-0.8,0.4c-0.2,0.5-0.4,1.1-0.4,1.6c0,0.2,0,0.3,0,1.2v4.1"/>
		<path class="st0" d="M78.4,143.4h10.2"/>
		<path class="st0" d="M56.5,126.8h54"/>
		<path class="st0" d="M101.3,13.5h8.5c0.3,0,0.6,0.2,0.8,0.3c0.2,0.2,0.2,0.5,0.2,0.8c0,0.2-0.1,0.3-0.2,0.4l-0.3,0.8l-1.1,2.8
			l1.3,4l0.2,0.8c0.1,0.3,0.2,0.5,0.2,0.8c0,0.3-0.1,0.6-0.2,0.9c-0.3,0.1-0.6,0.2-0.9,0.2h-1.4l-12,0h-1.2c-0.3,0-0.6-0.1-0.9-0.1
			c-0.2-0.2-0.3-0.4-0.3-0.6c0-0.2,0-0.4,0-0.6v-2.9"/>
		<circle class="st0" cx="83.7" cy="2.8" r="0.3"/>
		<path class="st0" d="M84,8.1h14.3c1.2,0,2.2,1,2.2,2.2V17c0,1.3-1,2.3-2.3,2.3H84V8.1z"/>
		<path class="st0" d="M83.7,2.9v28.9"/>
		<path class="st0" d="M83.3,126.8v33.7"/>
	</g>
</g>
</svg>
