<?xml version="1.0" encoding="utf-8"?>
<!-- Generator: Adobe Illustrator 25.4.1, SVG Export Plug-In . SVG Version: 6.00 Build 0)  -->
<svg version="1.1" id="Layer_1" xmlns="http://www.w3.org/2000/svg" xmlns:xlink="http://www.w3.org/1999/xlink" x="0px" y="0px"
	 viewBox="0 0 800 800" style="enable-background:new 0 0 800 800;" xml:space="preserve">
<style type="text/css">
	.st0{fill:#FFFFFF;}
</style>
<path class="st0" d="M175.6,399.7c0,9.6,3.9,16.5,12.6,25.2l146.9,147.7c5.7,5.7,13.5,8.3,22.6,8.3c17.4,0,31.3-13.5,31.3-31.3
	c0-9.6-3.9-17.4-9.6-23l-54.8-53.9l-52.2-43.9l91.6,3.5h226.3c19.1,0,32.6-13.9,32.6-32.6s-13.5-32.6-32.6-32.6H364.2l-92.1,3.5
	l52.6-44.4l54.8-53.5c6.1-5.7,9.6-13.5,9.6-23c0-17.8-13.9-31.7-31.3-31.7c-9.1,0-17,3-22.6,8.7l-147,147.5
	C179.9,382.3,175.6,390.3,175.6,399.7z"/>
</svg>
