<?xml version="1.0" encoding="utf-8"?>
<!-- Generator: Adobe Illustrator 25.4.1, SVG Export Plug-In . SVG Version: 6.00 Build 0)  -->
<svg version="1.1" id="Layer_1" xmlns="http://www.w3.org/2000/svg" xmlns:xlink="http://www.w3.org/1999/xlink" x="0px" y="0px"
	 viewBox="0 0 800 800" style="enable-background:new 0 0 800 800;" xml:space="preserve">
<style type="text/css">
	.st0{fill:#FFFFFF;}
</style>
<path class="st0" d="M624.4,400.3c0-9.6-3.9-16.5-12.6-25.2L465,227.3c-5.7-5.7-13.5-8.3-22.6-8.3c-17.4,0-31.3,13.5-31.3,31.3
	c0,9.6,3.9,17.4,9.6,23l54.8,53.9l52.2,43.9l-91.6-3.5H209.5c-19.1,0-32.6,13.9-32.6,32.6s13.5,32.6,32.6,32.6h226.3l92.1-3.5
	l-52.6,44.4l-54.8,53.5c-6.1,5.7-9.6,13.5-9.6,23c0,17.8,13.9,31.7,31.3,31.7c9.1,0,17-3,22.6-8.7l146.9-147.3
	C620.1,417.7,624.4,409.7,624.4,400.3z"/>
</svg>
