<svg xmlns="http://www.w3.org/2000/svg" viewBox="0 0 382.82 752.95"><defs><style>.cls-1{fill:#333;stroke:#231f20;}.cls-1,.cls-6{stroke-miterlimit:10;}.cls-2{fill:#fff;}.cls-2,.cls-3{opacity:0.7;}.cls-3{fill:#fffef4;}.cls-4{fill:#72afe0;}.cls-5{fill:#707071;}.cls-15,.cls-5{fill-rule:evenodd;}.cls-11,.cls-16,.cls-6,.cls-9{fill:none;}.cls-6{stroke:#1c75bc;}.cls-16,.cls-6{stroke-width:3px;}.cls-7{fill:#010101;}.cls-8{fill:#4077bc;}.cls-10{fill:#13264b;}.cls-11{stroke:#010101;stroke-width:2px;}.cls-11,.cls-16{stroke-linecap:round;stroke-linejoin:round;}.cls-12{fill:#1f438c;}.cls-13{fill:#e7ecec;}.cls-14,.cls-15{fill:#717071;}.cls-16{stroke:#717071;}</style></defs><g id="Layer_2" data-name="Layer 2"><g id="Layer_1-2" data-name="Layer 1"><rect class="cls-1" x="0.5" y="0.5" width="381.82" height="751.95"/><rect class="cls-2" x="9.59" y="8.19" width="363.54" height="62.34" rx="13.62"/><rect class="cls-3" x="9" y="78.91" width="264.16" height="659.4" rx="13.62"/><rect class="cls-4" x="20.86" y="582.55" width="241.72" height="36.83" rx="13.62"/><path class="cls-5" d="M59.06,182.14l-7.59-6.27a6.77,6.77,0,0,0-8.7,0l-7.59,6.27A6,6,0,0,0,33,186.77v9.77a5.77,5.77,0,0,0,5.63,5.9h2.82a2.82,2.82,0,0,0,2.82-2.82v-4.57a2.83,2.83,0,1,1,5.63,0v4.57a2.81,2.81,0,0,0,2.81,2.82h2.82a5.77,5.77,0,0,0,5.63-5.9v-9.77A6,6,0,0,0,59.06,182.14Z"/><g id="Layer_2-2" data-name="Layer 2"><g id="Layer_1-2-2" data-name="Layer 1-2"><path class="cls-6" d="M56.56,131.66a3.87,3.87,0,0,1-1.84-.92,4,4,0,0,1-1.15-2,5.12,5.12,0,0,1-.11-1.95,30.62,30.62,0,0,1,.8-5.39c.44-1.69.71-2.13,1.15-2.41a2,2,0,0,1,2-.11,2.14,2.14,0,0,1,.92,1.15,18.74,18.74,0,0,1,1.37,5,11.13,11.13,0,0,1,.12,3,4.24,4.24,0,0,1-.81,2.3A3.78,3.78,0,0,1,56.56,131.66Z"/><path class="cls-6" d="M56.61,136.53V131.6"/><path class="cls-6" d="M62.23,133H89.87"/><path class="cls-6" d="M59,136H93.08"/><path class="cls-6" d="M98.93,136.65V107.52"/><path class="cls-6" d="M88.84,109.35h9.41"/><rect class="cls-6" x="70.72" y="123.46" width="10.89" height="9.06"/><rect class="cls-6" x="90.68" y="114.63" width="3.56" height="4.93" rx="1.65"/><rect class="cls-6" x="90.68" y="124.26" width="3.56" height="4.93" rx="1.65"/><rect class="cls-6" x="78.18" y="113.83" width="3.56" height="4.93" rx="1.65"/><rect class="cls-6" x="78.18" y="104.76" width="3.56" height="4.93" rx="1.65"/><rect class="cls-6" x="70.38" y="113.83" width="3.56" height="4.93" rx="1.65"/><rect class="cls-6" x="70.38" y="104.76" width="3.56" height="4.93" rx="1.65"/><path class="cls-6" d="M86.2,129.88V105.8"/><path class="cls-6" d="M88,104.19,76,97l-11.93,7.23"/><path class="cls-6" d="M53.17,116.81v-9.64"/><path class="cls-6" d="M63.38,109.47H54.09"/><path class="cls-6" d="M65.9,130.8V106.71"/><path class="cls-6" d="M61.32,119.33v-4.81a1,1,0,0,0-.12-.34.7.7,0,0,0-.34-.12H58.22a.51.51,0,0,0-.23.12,1.2,1.2,0,0,0-.11.46v1.49"/><path class="cls-6" d="M74.62,128.16h2.87"/><path class="cls-6" d="M68.43,123.46H83.68"/><path class="cls-6" d="M81.08,91.46h2.4a.59.59,0,0,1,.24.09.39.39,0,0,1,.06.21.5.5,0,0,1,0,.13l-.08.22-.31.78L83.7,94l.07.22a1.42,1.42,0,0,1,.07.22.5.5,0,0,1-.06.24,1,1,0,0,1-.25.06H79.4a.75.75,0,0,1-.26,0,.4.4,0,0,1-.1-.18v-1"/><circle class="cls-6" cx="76.11" cy="88.45" r="0.1"/><path class="cls-6" d="M76.2,89.93h4a.62.62,0,0,1,.62.62v1.89a.66.66,0,0,1-.66.66h-4Z"/><path class="cls-6" d="M76.11,88.46v8.16"/><path class="cls-6" d="M76,123.46V133"/><path class="cls-7" d="M115.3,127.63a5,5,0,0,1-2.26,1.61,9.25,9.25,0,0,1-3.29.55,6.46,6.46,0,0,1-3.35-.85,5.69,5.69,0,0,1-2.26-2.45,8.6,8.6,0,0,1-.82-3.73v-1.18a8,8,0,0,1,1.63-5.33,5.74,5.74,0,0,1,4.58-1.94,6,6,0,0,1,4,1.25,5.47,5.47,0,0,1,1.78,3.59h-2.57a2.88,2.88,0,0,0-3.15-2.72,3.1,3.1,0,0,0-2.68,1.26,6.46,6.46,0,0,0-1,3.72v1.15a6.1,6.1,0,0,0,1,3.79,3.36,3.36,0,0,0,2.85,1.35,3.77,3.77,0,0,0,2.86-.91v-3h-3.11v-2h5.71Z"/><path class="cls-7" d="M127,122.86h-6.19v4.63H128v2.09h-9.85V114.52H128v2.11h-7.16v4.16H127Z"/><path class="cls-7" d="M142.1,129.58h-2.62l-6.71-10.68v10.68h-2.63V114.52h2.62l6.73,10.74V114.52h2.6Z"/><path class="cls-7" d="M156.21,114.52v10.07a4.88,4.88,0,0,1-1.54,3.8,6.71,6.71,0,0,1-8.19,0,4.9,4.9,0,0,1-1.53-3.83V114.52h2.61V124.6a3.2,3.2,0,0,0,.77,2.3,3,3,0,0,0,2.26.8q3,0,3-3.19v-10Z"/><path class="cls-7" d="M166.86,125.7a1.85,1.85,0,0,0-.69-1.53,8.62,8.62,0,0,0-2.52-1.08,12.13,12.13,0,0,1-2.9-1.22,3.89,3.89,0,0,1-2.06-3.38,3.67,3.67,0,0,1,1.49-3,6,6,0,0,1,3.85-1.19,6.58,6.58,0,0,1,2.8.59,4.5,4.5,0,0,1,1.94,1.65,4.24,4.24,0,0,1,.7,2.37h-2.61a2.35,2.35,0,0,0-.74-1.85,3.1,3.1,0,0,0-2.11-.67,3.24,3.24,0,0,0-2,.55,1.84,1.84,0,0,0-.71,1.53,1.61,1.61,0,0,0,.77,1.38,8.28,8.28,0,0,0,2.52,1.08,11.49,11.49,0,0,1,2.82,1.19,4.51,4.51,0,0,1,1.57,1.53,4,4,0,0,1,.49,2,3.59,3.59,0,0,1-1.44,3,6.27,6.27,0,0,1-3.92,1.11,7.38,7.38,0,0,1-3-.6,5,5,0,0,1-2.13-1.68,4.13,4.13,0,0,1-.76-2.48h2.62a2.44,2.44,0,0,0,.84,2,3.72,3.72,0,0,0,2.43.7,3.24,3.24,0,0,0,2.06-.56A1.78,1.78,0,0,0,166.86,125.7Z"/><path class="cls-8" d="M55.49,149.63,58,141.78H60l-3.6,10h-1.7l-3.59-10H53Z"/><path class="cls-8" d="M72.1,151.82H70.36v-10H72.1Z"/><path class="cls-8" d="M85.15,150.43h4.56v1.39h-6.3v-10h1.74Z"/><path class="cls-8" d="M102,150.43h4.56v1.39H100.2v-10H102Z"/><path class="cls-8" d="M122.64,149.48h-3.89l-.81,2.34h-1.81l3.79-10h1.56l3.8,10h-1.82Zm-3.39-1.41h2.91l-1.45-4.17Z"/></g></g><g id="页面-1"><g id="Editor"><g id="menu_fill" data-name="menu fill"><path id="MingCute" class="cls-9" d="M71.34,20.05V54.54H36.85V20.05ZM54.94,53.47h0l-.1.06h0l-.11-.06h0v0l0,.61v0l.15.11h0l.15-.11,0,0h0v0l0-.61s0,0,0,0Zm.38-.16h0l-.26.14h0v0l0,.61v0h0l.28.14s0,0,0,0v0l0-.88a0,0,0,0,0,0,0Zm-1,0h0v0l0,.88a.05.05,0,0,0,0,0h0l.29-.14h0v0l0-.61v0h0Z"/><path id="形状" class="cls-10" d="M65.59,45.2a2.15,2.15,0,0,1,.2,4.3H42.6a2.15,2.15,0,0,1-.21-4.3h23.2Zm0-10.06a2.16,2.16,0,0,1,0,4.31h-23a2.16,2.16,0,1,1,0-4.31Zm0-10.06a2.16,2.16,0,0,1,0,4.31h-23a2.16,2.16,0,1,1,0-4.31Z"/></g></g></g><path class="cls-11" d="M124.05,47.66l-5-5m2.71-6.51a9.22,9.22,0,1,1-9.22-9.21A9.22,9.22,0,0,1,121.75,36.14Z"/><path class="cls-12" d="M311.72,59.73c.18-.16.35-.33.55-.48s.5-.3.7-.4l7.9-4.3a2.75,2.75,0,0,0,1.4-3v-3.2a17.14,17.14,0,0,1-3.2-6.6,2.61,2.61,0,0,1-1.2-2.2v-3.5a2.88,2.88,0,0,1,.9-2V29s-1.1-8,9.8-8,9.8,8,9.8,8v5.2a2.52,2.52,0,0,1,.9,2v3.5a2.58,2.58,0,0,1-1.9,2.5,17.44,17.44,0,0,1-2.6,5.3c-.3.4-.6.7-.8,1v3.3a3.22,3.22,0,0,0,1.8,2.9l8.5,4.2a2.51,2.51,0,0,1,.7.4,6.94,6.94,0,0,1,.72.6,26.51,26.51,0,1,0-34-.12Z"/><path class="cls-13" d="M345,59.25a2.51,2.51,0,0,0-.7-.4l-8.5-4.2a3.22,3.22,0,0,1-1.8-2.9v-3.3c.2-.3.5-.6.8-1a17.44,17.44,0,0,0,2.6-5.3,2.58,2.58,0,0,0,1.9-2.5v-3.5a2.52,2.52,0,0,0-.9-2V29s1.1-8-9.8-8-9.8,8-9.8,8v5.1a2.88,2.88,0,0,0-.9,2v3.5a2.61,2.61,0,0,0,1.2,2.2,17.14,17.14,0,0,0,3.2,6.6v3.2a2.75,2.75,0,0,1-1.4,3l-7.9,4.3c-.2.1-.5.3-.7.4a5.25,5.25,0,0,0-.55.48,26.35,26.35,0,0,0,17,6.22h0a26.38,26.38,0,0,0,16.91-6.1A5.92,5.92,0,0,0,345,59.25Z"/><path class="cls-14" d="M56.93,229.55H42.49a.65.65,0,0,0-.65.65v5.08l.72-.45a1.93,1.93,0,0,1,.58-.24v-3.74H56.28v9.4H43.14v-1.52l-1.3.81v1.36a.65.65,0,0,0,.65.65H56.93a.65.65,0,0,0,.65-.65V230.2A.65.65,0,0,0,56.93,229.55Z"/><path class="cls-14" d="M47.46,233.16a.52.52,0,0,0-.71-.08l-2.24,1.77a1.81,1.81,0,0,1,.54.56,1,1,0,0,1,.11.2l2.21-1.74A.51.51,0,0,0,47.46,233.16Z"/><circle class="cls-14" cx="36.62" cy="230.44" r="1.88"/><path class="cls-14" d="M44.29,235.89A.9.9,0,0,0,43,235.6l-1.83,1.13c0-1.52,0-.71,0-1.69a2.15,2.15,0,0,0-2.14-2.13h-.89c-.76,2-.52,1.24-1.17,2.92l.28-1.19a.39.39,0,0,0,0-.26l-.37-.67.33-.59a.14.14,0,0,0-.12-.2h-.9a.13.13,0,0,0-.11.2l.32.59-.37.68a.35.35,0,0,0,0,.25l.23,1.19-1.12-2.92h-.91A2.14,2.14,0,0,0,32.05,235l0,6.65a.9.9,0,0,0,.9.91h0a.9.9,0,0,0,.9-.9l0-6.65h0a.18.18,0,0,1,.36,0v9.42a3,3,0,0,1,2.17.79v-3.68h.47v4.22a3,3,0,0,1,.52,1.7,3,3,0,0,1-.44,1.57,3.2,3.2,0,0,1,.83.11,3,3,0,0,1,1.26-.65c0-16.41,0-6.27,0-13.48a.19.19,0,0,1,.19-.19.2.2,0,0,1,.19.19c0,.64,0,2.62,0,3.31a.94.94,0,0,0,.47.79.89.89,0,0,0,.92,0l3.2-2A.9.9,0,0,0,44.29,235.89Z"/><circle class="cls-14" cx="54.7" cy="247.52" r="1.99"/><path class="cls-14" d="M59.53,252.4a2.28,2.28,0,0,0-2.27-2.26h-5a3.08,3.08,0,0,1,.33,1.38,3,3,0,0,1-.44,1.58,3.32,3.32,0,0,1,2.66,1.52h2.38v-2.2a.19.19,0,0,1,.19-.2.21.21,0,0,1,.21.19h0v2.21h1.92Z"/><path class="cls-14" d="M46.55,251.52a3,3,0,0,1,.34-1.4H42.47a3.08,3.08,0,0,1,.32,1.35,3,3,0,0,1-.44,1.57,3.35,3.35,0,0,1,2.37,1,3.24,3.24,0,0,1,2.28-.94A3,3,0,0,1,46.55,251.52Z"/><path class="cls-14" d="M45,245.52a2,2,0,1,0,2,2A2,2,0,0,0,45,245.52Z"/><path class="cls-14" d="M36.72,251.47a3.08,3.08,0,0,1,.32-1.35H31.78a2.27,2.27,0,0,0-2.26,2.26l0,2.24h1.92v-2.23a.19.19,0,0,1,.2-.2.2.2,0,0,1,.2.2v2.23h2.69a3.27,3.27,0,0,1,2.66-1.55A3,3,0,0,1,36.72,251.47Z"/><path class="cls-14" d="M34.35,245.52a2,2,0,1,0,2,2A2,2,0,0,0,34.35,245.52Z"/><path class="cls-14" d="M54.3,256.39A2.26,2.26,0,0,0,52,254.14H47a2.33,2.33,0,0,0-2.33,2.25l0-.05a2.26,2.26,0,0,0-2.26-2.26h-5A2.34,2.34,0,0,0,35,256.34v2.29H37v-2.28a.17.17,0,0,1,.17-.17.16.16,0,0,1,.17.17v2.28h5.08v-2.28a.19.19,0,0,1,.18-.19.2.2,0,0,1,.19.19v2.28h3.83V256.4h0a.17.17,0,0,1,.17-.17.18.18,0,0,1,.17.17v2.23H52V256.4a.18.18,0,0,1,.18-.18.19.19,0,0,1,.19.18v2.23h1.91Z"/><circle class="cls-14" cx="39.82" cy="251.46" r="2.01"/><circle class="cls-14" cx="49.58" cy="251.52" r="2.01"/><path class="cls-14" d="M48.36,297.81H44.6a.47.47,0,0,0-.47.47v2.82a.47.47,0,0,0,.47.47h3.76a.47.47,0,0,0,.47-.47v-2.82A.47.47,0,0,0,48.36,297.81Z"/><path class="cls-14" d="M40.83,287.93v-3.76a.47.47,0,0,0-.47-.47H34.72a.47.47,0,0,0-.47.47v3.76a.47.47,0,0,0,.47.47h5.64A.47.47,0,0,0,40.83,287.93Z"/><path class="cls-14" d="M55.42,294H54V287a1.42,1.42,0,0,0-1.42-1.41H43.66v-3.3a1.42,1.42,0,0,0-1.42-1.41h-9.4a1.41,1.41,0,0,0-1.41,1.41v8H29.07a1.41,1.41,0,0,0-1.41,1.41V303a.47.47,0,0,0,.47.47H55.42a.47.47,0,0,0,.47-.47v-8.46A.48.48,0,0,0,55.42,294Zm-18.35,3.3a.47.47,0,0,1-.47.47H31a.47.47,0,0,1-.48-.47v-3.77a.47.47,0,0,1,.48-.47H36.6a.47.47,0,0,1,.47.47Zm1.41-7.06H32.37v-8a.47.47,0,0,1,.47-.47h9.4a.48.48,0,0,1,.48.47v3.38l0,0-.08,0-.15.08-.07,0-.15.13,0,0a1,1,0,0,0-.15.19s0,0,0,.05l-.09.16,0,.08a1.09,1.09,0,0,0,0,.17l0,.08a1.09,1.09,0,0,0,0,.26v5.17H40.36a1.09,1.09,0,0,0-.26,0l-.08,0-.13,0v-.55A1.41,1.41,0,0,0,38.48,290.28Zm11.76,4.24v8H39.89v-8.94a.47.47,0,0,1,.47-.47h9.41a.47.47,0,0,1,.47.47v.95Zm0-3.77a.47.47,0,0,1-.47.47H46a.47.47,0,0,1-.47-.47v-2.82a.47.47,0,0,1,.47-.47h3.76a.47.47,0,0,1,.47.47v2.82ZM55,302.51H51.18V295H55Z"/><rect class="cls-14" x="46.48" y="288.4" width="2.82" height="1.88"/><rect class="cls-14" x="31.43" y="294.04" width="4.7" height="2.82"/><path class="cls-14" d="M37.06,357.19v-4.81h9.63v4.81Zm-9.63-19.25H56.31v-4.81H27.43Zm24.07,9.62v-4.81H32.25v4.81Z"/><path class="cls-14" d="M41.61,387.7a4.93,4.93,0,1,0-4.91-4.93A4.92,4.92,0,0,0,41.61,387.7Zm4.78,1.14a3.69,3.69,0,0,1,3.19,1.92l7.25,10a2.83,2.83,0,0,1-2.33,4.39,2.92,2.92,0,0,1-1-.2l-4.4-1.22v4.35H34v-4.35l-4.4,1.22a2.8,2.8,0,0,1-3.84-2.61,2.68,2.68,0,0,1,.49-1.57l7.24-10a3.67,3.67,0,0,1,3.18-1.92ZM41.51,405l5.66-1.88-.12,0c-3.92-1.15-2.42-6.34,1.49-5.17l.52.18v-5.85l-7.55,2.49L34,392.28v5.85l.52-.18c3.91-1.17,5.42,4,1.51,5.17l-.14,0Z"/><path class="cls-14" d="M52.4,424H30.91A2.94,2.94,0,0,0,28,426.91V448.4a3,3,0,0,0,2.94,2.94H52.4a3,3,0,0,0,2.94-2.94V426.91A3,3,0,0,0,52.4,424Zm-15.46,2h9.43v2.44H36.94ZM52.8,448.52H30.51V430.77H52.8v17.75Z"/><rect class="cls-14" x="32.76" y="438.85" width="2.94" height="2.94"/><rect class="cls-14" x="32.76" y="443.5" width="2.94" height="2.94"/><rect class="cls-14" x="37.69" y="434.19" width="2.94" height="2.94"/><rect class="cls-14" x="37.69" y="438.85" width="2.94" height="2.94"/><rect class="cls-14" x="37.69" y="443.5" width="2.94" height="2.94"/><rect class="cls-14" x="42.61" y="434.19" width="2.94" height="2.94"/><rect class="cls-14" x="42.61" y="438.85" width="2.94" height="2.94"/><rect class="cls-14" x="42.61" y="443.5" width="2.94" height="2.94"/><rect class="cls-14" x="47.54" y="434.19" width="2.94" height="2.94"/><rect class="cls-14" x="47.54" y="438.85" width="2.94" height="2.94"/><path class="cls-14" d="M54.09,475.64H26.9a.9.9,0,0,0-.91.9v19.94a.91.91,0,0,0,.91.91h10l3,3a.9.9,0,0,0,.64.27.89.89,0,0,0,.64-.27l3-3h10a.9.9,0,0,0,.9-.91V476.54A.9.9,0,0,0,54.09,475.64Zm-.91,19.93H43.37l-2.88,2.88-2.87-2.88H27.8V477.45H53.18Zm-13.59-2.72H42.3v-2.71H39.59Zm.9-1.81h.91V492h-.91Zm-.9-7.25a1.81,1.81,0,1,1,1.81,1.81H39.59v3.63H42.3v-1a4.53,4.53,0,1,0-5.43-4.44v.91h2.72Zm-1.82,0a3.63,3.63,0,1,1,3.63,3.63v.9h-.91v-1.81h.91a2.72,2.72,0,1,0-2.72-2.72Z"/><g id="_590_Build_design_geometry_math_tool" data-name="590, Build, design, geometry, math, tool"><path class="cls-15" d="M42.69,526.16a2.85,2.85,0,0,0-1.19-.69h0a2.7,2.7,0,0,0-.59-.09h-.32a2.67,2.67,0,0,0-1.7.78,2.71,2.71,0,1,0,3.83,0m-1.1,1.1a1.15,1.15,0,0,0-2,.82,1.11,1.11,0,0,0,.33.81,1.15,1.15,0,0,0,2-.81A1.19,1.19,0,0,0,41.59,527.26Zm-.82-.74a1.55,1.55,0,1,1-1.1.46A1.56,1.56,0,0,1,40.77,526.52ZM40.2,525l.36,0H41l.36,0v-1.67a.57.57,0,0,0-1-.4.57.57,0,0,0-.17.4V525Zm11,9.64V534H49.17v.62Zm-2.07,12.46H50V536.21a.2.2,0,1,1,.4,0v10.91h.84V535.06H49.17v12.06Zm2.07.4H49.17v1.17l1,2.18,1-2.18v-1.17ZM49.5,531.7h1.41a.32.32,0,0,1,.33.32h0v1.61H49.17V532h0A.32.32,0,0,1,49.5,531.7Zm-2.57,5.9h-.57v.57h.57Zm-.77-.4h1a.21.21,0,0,1,.2.2v1a.2.2,0,0,1-.2.2h-.29a5.81,5.81,0,0,1-.67,2.58l-.16-.6a5.79,5.79,0,0,0,.27-.8,5.69,5.69,0,0,0,.16-1.18h-.28a.2.2,0,0,1-.2-.2v-1A.21.21,0,0,1,46.16,537.2Zm-10.93.4h-.57v.57h.57Zm-.77-.4h1a.21.21,0,0,1,.2.2v1a.2.2,0,0,1-.2.2h-.28a6.13,6.13,0,0,0,.15,1.14c.07.25.15.51.24.75l-.16.61a5.67,5.67,0,0,1-.46-1.27,5.61,5.61,0,0,1-.17-1.23h-.29a.2.2,0,0,1-.2-.2v-1A.21.21,0,0,1,34.46,537.2ZM32.2,553.79a.2.2,0,0,1,0-.4H45.46a.2.2,0,0,1,0,.4Zm7-.76a.2.2,0,0,1,0-.4H49.66a.2.2,0,1,1,0,.4Zm11.56,0a.2.2,0,0,1,0-.4h1.31a.2.2,0,1,1,0,.4Zm-21,0a.2.2,0,1,1,0-.4h5a.2.2,0,1,1,0,.4Zm10.95-6a.18.18,0,0,0,.12.17.19.19,0,0,0,.28-.17v-.41a.19.19,0,0,0-.11-.17.2.2,0,0,0-.29.17V547Zm0,1.6a.18.18,0,0,0,.12.17.19.19,0,0,0,.28-.17v-.4A.19.19,0,0,0,41,548a.2.2,0,0,0-.29.18v.4Zm0,1.6a.21.21,0,0,0,.12.18.2.2,0,0,0,.28-.18v-.4a.19.19,0,0,0-.11-.18.2.2,0,0,0-.29.18v.4Zm0-11.49a.21.21,0,0,0,.12.18.2.2,0,0,0,.28-.18v-.4a.19.19,0,0,0-.11-.18.2.2,0,0,0-.29.18v.4Zm0,1.6a.2.2,0,0,0,.4,0v-.4a.21.21,0,0,0-.11-.18.2.2,0,0,0-.29.18v.4Zm0,1.6a.2.2,0,0,0,.4,0v-.4a.21.21,0,0,0-.11-.18.2.2,0,0,0-.29.18v.4Zm.4,1.3v-.1A.19.19,0,0,0,41,543a.2.2,0,0,0-.29.18v.1h-.59a.2.2,0,0,0-.2.2V544a5.34,5.34,0,0,1-1.14-.32,7.39,7.39,0,0,1-1.13-.6l-.11.4a7.22,7.22,0,0,0,1.09.57,5.59,5.59,0,0,0,1.29.35V545a.19.19,0,0,0,.2.2h.59v.2a.21.21,0,0,0,.12.19.2.2,0,0,0,.28-.19v-.2h.59a.19.19,0,0,0,.2-.2v-.68a5.92,5.92,0,0,0,1.2-.34,7.51,7.51,0,0,0,1-.52l-.1-.4a8.36,8.36,0,0,1-1.05.55,6.33,6.33,0,0,1-1,.31v-.5a.2.2,0,0,0-.2-.2Zm-.21.4h.6v1.19h-.57a0,0,0,0,0,0,0h-.58v-.63h0v-.55Zm.21-6.9a.19.19,0,0,0-.11-.18.2.2,0,0,0-.29.18v.4a.21.21,0,0,0,.12.18.2.2,0,0,0,.28-.18Zm6.62,14.15a.2.2,0,0,1-.14.24.19.19,0,0,1-.24-.14l-.57-2.15h-.27a.87.87,0,0,1-.74-.67l-1.31-4.91-.11-.41-3.13-11.68a3.09,3.09,0,0,0,1.7-.79l4.64,17.31a.85.85,0,0,1-.3,1l-.11.08ZM34.34,551a.2.2,0,0,1-.24.14.19.19,0,0,1-.14-.24l.56-2.11a1,1,0,0,1-.41-.38h0a1,1,0,0,1-.09-.69l4.64-17.32a3.1,3.1,0,0,0,1.71.8L37.25,542.8l-.11.41-1.33,4.95h0a1,1,0,0,1-.43.56.84.84,0,0,1-.48.12Zm-3.17-2.22a.2.2,0,0,1,0,.4H29.56v1.6h2.86V532.9H29.56v1.61h1.61a.2.2,0,0,1,0,.4H29.56v1.38h1a.2.2,0,1,1,0,.4h-1v1.38h1.61a.2.2,0,0,1,0,.4H29.56v1.38h1a.2.2,0,1,1,0,.4h-1v1.38h1.61a.2.2,0,0,1,0,.4H29.56v1.38h1a.2.2,0,1,1,0,.4h-1v1.38h1.61a.2.2,0,0,1,0,.4H29.56V547h1a.2.2,0,1,1,0,.4h-1v1.38Z"/></g><circle class="cls-16" cx="43.16" cy="600.71" r="2.29"/><path class="cls-16" d="M52.3,598.43a2.29,2.29,0,1,1,0,4.57"/><path class="cls-16" d="M34,598.43A2.29,2.29,0,1,0,34,603"/><path class="cls-16" d="M49.71,607.49a2.28,2.28,0,1,1-4,2.28"/><path class="cls-16" d="M40.57,591.65a2.29,2.29,0,0,0-4,2.29"/><path class="cls-16" d="M52.3,603c-1.14,0-2.57,0-3.2,1.14s-.22,1.72.35,2.86"/><path class="cls-16" d="M36.88,594.43c.57,1.14,1,1.76.34,2.86s-2.06,1.14-3.2,1.14"/><path class="cls-16" d="M45.75,591.65a2.29,2.29,0,0,1,4,2.29"/><path class="cls-16" d="M36.61,607.49a2.28,2.28,0,1,0,4,2.28"/><path class="cls-16" d="M49.71,593.94c-.57,1-1.24,2.25-.61,3.35s1.37,1.05,2.65,1.12"/><path class="cls-16" d="M34.58,603c1.27.08,2,0,2.64,1.13s0,2.36-.61,3.35"/><path class="cls-16" d="M40.57,591.65c.57,1,1.33,2.21,2.59,2.21s1.6-.66,2.3-1.73"/><path class="cls-16" d="M40.86,609.3c.7-1.07,1-1.73,2.3-1.73s2,1.21,2.59,2.2"/><path class="cls-14" d="M79.26,185.39v5.36h6.19v-5.36h1.67v12.8H85.45v-6H79.26v6H77.61v-12.8Z"/><path class="cls-14" d="M98.26,193.52a4.49,4.49,0,0,1-4.58,4.88,4.37,4.37,0,0,1-4.41-4.73c0-3.08,2-4.88,4.56-4.88S98.26,190.71,98.26,193.52Zm-7.3.1c0,2,1.16,3.53,2.8,3.53s2.79-1.5,2.79-3.57c0-1.56-.78-3.54-2.76-3.54S91,191.87,91,193.62Z"/><path class="cls-14" d="M100.37,191.49c0-1,0-1.73-.08-2.49h1.46l.08,1.48h.06a3.18,3.18,0,0,1,2.89-1.69,2.72,2.72,0,0,1,2.6,1.84h0a3.66,3.66,0,0,1,1-1.19,3.13,3.13,0,0,1,2-.65c1.22,0,3,.8,3,4v5.41h-1.63V193c0-1.77-.64-2.83-2-2.83a2.17,2.17,0,0,0-2,1.52,2.63,2.63,0,0,0-.13.83v5.68h-1.64v-5.51c0-1.46-.64-2.52-1.91-2.52a2.29,2.29,0,0,0-2.08,1.67,2.43,2.43,0,0,0-.13.82v5.54h-1.63Z"/><path class="cls-14" d="M117.15,193.9a2.94,2.94,0,0,0,3.15,3.19,6.09,6.09,0,0,0,2.54-.47l.29,1.19a7.4,7.4,0,0,1-3.06.57,4.27,4.27,0,0,1-4.52-4.63c0-2.77,1.63-5,4.31-5,3,0,3.8,2.64,3.8,4.33a6,6,0,0,1-.06.78Zm4.9-1.2a2.38,2.38,0,0,0-2.32-2.71,2.78,2.78,0,0,0-2.57,2.71Z"/><path class="cls-14" d="M89.23,248.68a8.09,8.09,0,0,1-3.38.61c-3.61,0-6.33-2.28-6.33-6.48a6.37,6.37,0,0,1,6.69-6.72,6.83,6.83,0,0,1,3,.57l-.4,1.35a5.9,5.9,0,0,0-2.58-.54c-3,0-5,1.92-5,5.29,0,3.13,1.81,5.14,4.92,5.14a6.49,6.49,0,0,0,2.7-.53Z"/><path class="cls-14" d="M91.25,235.61h1.67V249.1H91.25Z"/><path class="cls-14" d="M100.82,249.1l-.13-1.16h-.06a3.42,3.42,0,0,1-2.81,1.37A2.62,2.62,0,0,1,95,246.67c0-2.22,2-3.44,5.53-3.42v-.19a1.9,1.9,0,0,0-2.09-2.13,4.59,4.59,0,0,0-2.4.69l-.38-1.11a5.74,5.74,0,0,1,3-.81c2.82,0,3.5,1.92,3.5,3.76v3.44a13.34,13.34,0,0,0,.15,2.2Zm-.25-4.69c-1.82,0-3.89.28-3.89,2.07a1.48,1.48,0,0,0,1.58,1.6,2.29,2.29,0,0,0,2.22-1.54,1.7,1.7,0,0,0,.09-.54Z"/><path class="cls-14" d="M104.66,247.39a4.4,4.4,0,0,0,2.2.67c1.22,0,1.79-.61,1.79-1.37s-.48-1.24-1.71-1.69c-1.65-.59-2.43-1.5-2.43-2.61,0-1.48,1.19-2.69,3.17-2.69a4.52,4.52,0,0,1,2.26.57l-.42,1.21a3.63,3.63,0,0,0-1.88-.53c-1,0-1.54.57-1.54,1.26s.56,1.1,1.75,1.55c1.6.61,2.41,1.41,2.41,2.78,0,1.61-1.25,2.75-3.43,2.75a5.27,5.27,0,0,1-2.59-.63Z"/><path class="cls-14" d="M112.18,247.39a4.44,4.44,0,0,0,2.21.67c1.21,0,1.78-.61,1.78-1.37s-.47-1.24-1.71-1.69c-1.65-.59-2.43-1.5-2.43-2.61,0-1.48,1.2-2.69,3.17-2.69a4.56,4.56,0,0,1,2.27.57l-.42,1.21a3.67,3.67,0,0,0-1.88-.53c-1,0-1.54.57-1.54,1.26s.55,1.1,1.75,1.55c1.59.61,2.41,1.41,2.41,2.78,0,1.61-1.26,2.75-3.44,2.75a5.2,5.2,0,0,1-2.58-.63Z"/><path class="cls-14" d="M119.94,242.77c0-1.08,0-2-.08-2.86h1.46l.06,1.8h.08a2.75,2.75,0,0,1,2.54-2,2.36,2.36,0,0,1,.48.05v1.58a2.43,2.43,0,0,0-.57-.06,2.36,2.36,0,0,0-2.25,2.15,6,6,0,0,0-.07.78v4.9h-1.65Z"/><path class="cls-14" d="M134.28,244.43a4.49,4.49,0,0,1-4.58,4.88,4.37,4.37,0,0,1-4.41-4.73c0-3.08,2-4.88,4.56-4.88S134.28,241.62,134.28,244.43Zm-7.29.09c0,2,1.15,3.54,2.79,3.54s2.79-1.5,2.79-3.58c0-1.55-.78-3.53-2.75-3.53S127,242.77,127,244.52Z"/><path class="cls-14" d="M144.71,244.43a4.49,4.49,0,0,1-4.58,4.88c-2.49,0-4.4-1.82-4.4-4.73,0-3.08,2-4.88,4.55-4.88S144.71,241.62,144.71,244.43Zm-7.29.09c0,2,1.15,3.54,2.79,3.54s2.79-1.5,2.79-3.58c0-1.55-.78-3.53-2.75-3.53S137.42,242.77,137.42,244.52Z"/><path class="cls-14" d="M146.82,242.39c0-.94,0-1.72-.07-2.48h1.46l.07,1.48h.06a3.16,3.16,0,0,1,2.89-1.69,2.72,2.72,0,0,1,2.6,1.84h0a3.84,3.84,0,0,1,1-1.2,3.1,3.1,0,0,1,2-.64c1.21,0,3,.8,3,4v5.41h-1.63v-5.2c0-1.77-.65-2.83-2-2.83a2.17,2.17,0,0,0-2,1.52,2.89,2.89,0,0,0-.13.83v5.68h-1.63v-5.51c0-1.46-.65-2.52-1.92-2.52a2.27,2.27,0,0,0-2.07,1.67,2.15,2.15,0,0,0-.13.81v5.55h-1.64Z"/><path class="cls-14" d="M81.73,289.06a18.36,18.36,0,0,1,3.17-.25,5.29,5.29,0,0,1,3.59,1.06,3.46,3.46,0,0,1,1.12,2.68,3.77,3.77,0,0,1-1,2.74,5.3,5.3,0,0,1-3.91,1.4,5.46,5.46,0,0,1-1.33-.11v5.13H81.73Zm1.65,6.17a5.34,5.34,0,0,0,1.37.13c2,0,3.21-1,3.21-2.73s-1.2-2.51-3-2.51a6.67,6.67,0,0,0-1.56.14Z"/><path class="cls-14" d="M96.38,301.71l-.14-1.16h0a3.45,3.45,0,0,1-2.82,1.37,2.62,2.62,0,0,1-2.81-2.64c0-2.22,2-3.44,5.53-3.42v-.19A1.9,1.9,0,0,0,94,293.54a4.64,4.64,0,0,0-2.39.68l-.38-1.1a5.74,5.74,0,0,1,3-.81c2.81,0,3.49,1.91,3.49,3.76v3.44a12.35,12.35,0,0,0,.16,2.2ZM96.13,297c-1.82,0-3.89.28-3.89,2.07a1.47,1.47,0,0,0,1.57,1.59A2.28,2.28,0,0,0,96,299.15a1.77,1.77,0,0,0,.1-.54Z"/><path class="cls-14" d="M107,301.37a6.16,6.16,0,0,1-2.64.53,4.37,4.37,0,0,1-4.58-4.69,4.67,4.67,0,0,1,4.94-4.88,5.53,5.53,0,0,1,2.31.47l-.37,1.29a3.88,3.88,0,0,0-1.94-.43,3.46,3.46,0,0,0-.06,6.91,4.7,4.7,0,0,0,2-.46Z"/><path class="cls-14" d="M110.61,296.73h0c.22-.32.55-.72.81-1l2.7-3.18h2l-3.55,3.79,4,5.41h-2l-3.17-4.41-.85.95v3.46H109V288.22h1.66Z"/><path class="cls-14" d="M118.8,297.42a2.94,2.94,0,0,0,3.15,3.19,6,6,0,0,0,2.55-.48l.28,1.2a7.36,7.36,0,0,1-3.06.57,4.27,4.27,0,0,1-4.52-4.64c0-2.77,1.63-4.95,4.31-4.95,3,0,3.8,2.64,3.8,4.33a6.44,6.44,0,0,1,0,.78Zm4.9-1.2a2.39,2.39,0,0,0-2.32-2.72,2.77,2.77,0,0,0-2.56,2.72Z"/><path class="cls-14" d="M135.31,292.51c0,.67-.08,1.41-.08,2.53v5.34c0,2.11-.42,3.4-1.31,4.2a4.89,4.89,0,0,1-3.34,1.1,6,6,0,0,1-3.06-.76l.42-1.27a5.13,5.13,0,0,0,2.69.72c1.71,0,3-.89,3-3.21v-1h0a3.27,3.27,0,0,1-2.93,1.54c-2.28,0-3.91-1.94-3.91-4.48,0-3.12,2-4.88,4.14-4.88a3.05,3.05,0,0,1,2.87,1.59h0l.07-1.39Zm-1.73,3.63a2.29,2.29,0,0,0-.1-.76,2.41,2.41,0,0,0-2.33-1.76c-1.6,0-2.74,1.35-2.74,3.47,0,1.81.91,3.31,2.72,3.31a2.47,2.47,0,0,0,2.32-1.71,3.09,3.09,0,0,0,.13-.89Z"/><path class="cls-14" d="M138.94,297.42a2.94,2.94,0,0,0,3.15,3.19,6,6,0,0,0,2.55-.48l.28,1.2a7.4,7.4,0,0,1-3.06.57,4.27,4.27,0,0,1-4.52-4.64c0-2.77,1.63-4.95,4.31-4.95,3,0,3.8,2.64,3.8,4.33,0,.34,0,.61,0,.78Zm4.9-1.2a2.39,2.39,0,0,0-2.32-2.72,2.78,2.78,0,0,0-2.57,2.72Z"/><path class="cls-14" d="M90.68,350.84a8.31,8.31,0,0,1-3.39.61c-3.61,0-6.32-2.28-6.32-6.48a6.37,6.37,0,0,1,6.69-6.73,6.87,6.87,0,0,1,3,.57l-.4,1.35a6.1,6.1,0,0,0-2.59-.53c-3,0-5,1.92-5,5.28,0,3.14,1.8,5.15,4.92,5.15a6.63,6.63,0,0,0,2.69-.53Z"/><path class="cls-14" d="M100.8,346.58a4.49,4.49,0,0,1-4.58,4.88c-2.48,0-4.4-1.82-4.4-4.73,0-3.07,2-4.88,4.56-4.88S100.8,343.77,100.8,346.58Zm-7.29.1c0,2,1.16,3.53,2.79,3.53s2.79-1.5,2.79-3.57c0-1.56-.78-3.53-2.75-3.53S93.51,344.93,93.51,346.68Z"/><path class="cls-14" d="M102.91,344.55c0-.95,0-1.73-.07-2.49h1.48l.09,1.52h0a3.39,3.39,0,0,1,3-1.73c1.27,0,3.25.76,3.25,3.91v5.5h-1.67V346c0-1.49-.55-2.72-2.13-2.72A2.37,2.37,0,0,0,104.7,345a2.28,2.28,0,0,0-.12.78v5.53h-1.67Z"/><path class="cls-14" d="M113.46,344.55c0-.95,0-1.73-.08-2.49h1.48l.1,1.52h0a3.38,3.38,0,0,1,3-1.73c1.27,0,3.24.76,3.24,3.91v5.5h-1.67V346c0-1.49-.55-2.72-2.12-2.72a2.38,2.38,0,0,0-2.25,1.71,2.57,2.57,0,0,0-.11.78v5.53h-1.67Z"/><path class="cls-14" d="M124.93,347a3,3,0,0,0,3.16,3.19,6.12,6.12,0,0,0,2.54-.47l.29,1.2a7.57,7.57,0,0,1-3.06.57,4.27,4.27,0,0,1-4.52-4.64c0-2.77,1.63-5,4.31-5,3,0,3.8,2.64,3.8,4.33a6,6,0,0,1-.06.78Zm4.9-1.2c0-1.06-.43-2.71-2.31-2.71a2.78,2.78,0,0,0-2.57,2.71Z"/><path class="cls-14" d="M140.08,350.91a6.13,6.13,0,0,1-2.64.54,4.37,4.37,0,0,1-4.58-4.7,4.67,4.67,0,0,1,4.94-4.88,5.51,5.51,0,0,1,2.31.48l-.38,1.29a3.83,3.83,0,0,0-1.93-.44,3.47,3.47,0,0,0-.06,6.92,4.7,4.7,0,0,0,2-.46Z"/><path class="cls-14" d="M144.29,339.42v2.64h2.4v1.27h-2.4v5c0,1.14.33,1.79,1.26,1.79a3.54,3.54,0,0,0,1-.12l.07,1.26a4.11,4.11,0,0,1-1.48.23,2.28,2.28,0,0,1-1.8-.71,3.37,3.37,0,0,1-.65-2.39v-5h-1.42v-1.27h1.42v-2.2Z"/><path class="cls-14" d="M81.73,392h1.65v11.42h5.47v1.39H81.73Z"/><path class="cls-14" d="M92.5,393a1,1,0,0,1-2.07,0,1,1,0,0,1,1-1.05A1,1,0,0,1,92.5,393Zm-1.86,11.78v-9.2h1.67v9.2Z"/><path class="cls-14" d="M95,404.76c0-.63.07-1.56.07-2.38V391.27h1.66V397h0a3.42,3.42,0,0,1,3.13-1.69c2.28,0,3.89,1.9,3.87,4.69,0,3.29-2.07,4.92-4.12,4.92a3.25,3.25,0,0,1-3.07-1.73h-.06l-.08,1.53Zm1.73-3.69a3.92,3.92,0,0,0,.07.61,2.59,2.59,0,0,0,2.51,1.95c1.75,0,2.79-1.42,2.79-3.53,0-1.84-1-3.42-2.73-3.42a2.67,2.67,0,0,0-2.55,2.05,3.22,3.22,0,0,0-.09.69Z"/><path class="cls-14" d="M105.9,398.43c0-1.08,0-2-.08-2.87h1.46l.06,1.8h.07a2.77,2.77,0,0,1,2.55-2,1.8,1.8,0,0,1,.48.06V397a3.27,3.27,0,0,0-.57-.05,2.35,2.35,0,0,0-2.25,2.14,6,6,0,0,0-.07.78v4.91H105.9Z"/><path class="cls-14" d="M117.1,404.76,117,403.6h-.06A3.42,3.42,0,0,1,114.1,405a2.62,2.62,0,0,1-2.81-2.64c0-2.22,2-3.44,5.53-3.42v-.19a1.89,1.89,0,0,0-2.09-2.12,4.52,4.52,0,0,0-2.39.68l-.38-1.1a5.65,5.65,0,0,1,3-.82c2.81,0,3.49,1.92,3.49,3.76v3.44a13.47,13.47,0,0,0,.15,2.21Zm-.24-4.7c-1.83,0-3.9.29-3.9,2.07a1.48,1.48,0,0,0,1.58,1.6,2.27,2.27,0,0,0,2.22-1.54,1.66,1.66,0,0,0,.1-.53Z"/><path class="cls-14" d="M121.17,398.43c0-1.08,0-2-.07-2.87h1.46l0,1.8h.08a2.77,2.77,0,0,1,2.55-2,1.68,1.68,0,0,1,.47.06V397a3.1,3.1,0,0,0-.57-.05,2.34,2.34,0,0,0-2.24,2.14,4.56,4.56,0,0,0-.08.78v4.91h-1.65Z"/><path class="cls-14" d="M128.47,395.56l2,5.43c.21.61.44,1.33.59,1.88h0c.17-.55.36-1.25.59-1.91l1.82-5.4h1.77l-2.51,6.55c-1.2,3.16-2,4.77-3.16,5.76a4.43,4.43,0,0,1-2.05,1.08l-.41-1.4a4.67,4.67,0,0,0,1.46-.82,5.15,5.15,0,0,0,1.4-1.86,1.19,1.19,0,0,0,.14-.4A1.45,1.45,0,0,0,130,404l-3.4-8.47Z"/><path class="cls-14" d="M88.36,440.41h-5V445h5.55v1.38h-7.2v-12.8h6.91V435H83.38v4h5Z"/><path class="cls-14" d="M91.53,437.22l1.81,5.16c.3.84.55,1.6.74,2.36h0c.21-.76.48-1.52.78-2.36l1.79-5.16h1.75l-3.61,9.19h-1.6l-3.49-9.19Z"/><path class="cls-14" d="M100.77,442.12a2.94,2.94,0,0,0,3.15,3.19,6.09,6.09,0,0,0,2.54-.47l.29,1.19a7.4,7.4,0,0,1-3.06.57A4.27,4.27,0,0,1,99.17,442c0-2.78,1.63-5,4.31-5,3,0,3.8,2.64,3.8,4.33a6,6,0,0,1-.06.78Zm4.9-1.2a2.38,2.38,0,0,0-2.32-2.71,2.77,2.77,0,0,0-2.57,2.71Z"/><path class="cls-14" d="M109.35,439.71c0-.95,0-1.73-.07-2.49h1.48l.09,1.52h0a3.38,3.38,0,0,1,3-1.73c1.27,0,3.25.76,3.25,3.91v5.49h-1.67v-5.3c0-1.48-.55-2.71-2.13-2.71a2.36,2.36,0,0,0-2.24,1.71,2.24,2.24,0,0,0-.11.77v5.53h-1.68Z"/><path class="cls-14" d="M121.84,434.58v2.64h2.39v1.27h-2.39v5c0,1.14.32,1.78,1.25,1.78a3.62,3.62,0,0,0,1-.11l.08,1.25a4,4,0,0,1-1.49.23,2.29,2.29,0,0,1-1.8-.7,3.37,3.37,0,0,1-.65-2.39v-5h-1.42v-1.27h1.42V435Z"/><path class="cls-14" d="M125.88,444.7a4.34,4.34,0,0,0,2.21.67c1.21,0,1.78-.61,1.78-1.37s-.47-1.24-1.71-1.69c-1.65-.59-2.43-1.5-2.43-2.6,0-1.49,1.2-2.7,3.17-2.7a4.49,4.49,0,0,1,2.26.57l-.41,1.22a3.56,3.56,0,0,0-1.88-.54c-1,0-1.54.57-1.54,1.26s.55,1.1,1.75,1.55c1.59.61,2.41,1.41,2.41,2.78,0,1.61-1.26,2.75-3.44,2.75a5.2,5.2,0,0,1-2.58-.62Z"/><path class="cls-14" d="M92.29,495.93c-1.73-.46-3.42-1-4.9-1.49a2.58,2.58,0,0,0-.78-.18c-3-.12-5.64-2.36-5.64-6.48s2.51-6.75,6-6.75,5.74,2.7,5.74,6.48c0,3.29-1.52,5.4-3.65,6.14v.07c1.28.33,2.66.63,3.75.82Zm-1.37-8.34c0-2.57-1.33-5.21-4-5.21s-4.16,2.58-4.14,5.36,1.48,5.17,4.06,5.17S90.92,490.51,90.92,487.59Z"/><path class="cls-14" d="M102.51,491.54c0,.95,0,1.78.08,2.51h-1.48l-.1-1.51h0a3.43,3.43,0,0,1-3,1.72c-1.44,0-3.17-.8-3.17-4v-5.38h1.67v5.09c0,1.75.54,2.93,2.06,2.93a2.42,2.42,0,0,0,2.2-1.52,2.58,2.58,0,0,0,.15-.86v-5.64h1.67Z"/><path class="cls-14" d="M106.22,489.75a2.94,2.94,0,0,0,3.15,3.19,6.18,6.18,0,0,0,2.55-.47l.28,1.2a7.53,7.53,0,0,1-3.06.57,4.27,4.27,0,0,1-4.52-4.64c0-2.77,1.64-5,4.31-5,3,0,3.8,2.64,3.8,4.33a6.29,6.29,0,0,1,0,.78Zm4.9-1.19c0-1.07-.44-2.72-2.32-2.72a2.77,2.77,0,0,0-2.56,2.72Z"/><path class="cls-14" d="M114.58,492.34a4.4,4.4,0,0,0,2.2.66c1.22,0,1.79-.61,1.79-1.37s-.48-1.23-1.71-1.69c-1.66-.59-2.43-1.5-2.43-2.6,0-1.48,1.19-2.7,3.17-2.7a4.62,4.62,0,0,1,2.26.57l-.42,1.22a3.54,3.54,0,0,0-1.88-.53c-1,0-1.54.57-1.54,1.25s.55,1.1,1.75,1.56c1.6.61,2.41,1.4,2.41,2.77,0,1.62-1.25,2.76-3.44,2.76a5.26,5.26,0,0,1-2.58-.63Z"/><path class="cls-14" d="M124.34,482.21v2.64h2.4v1.27h-2.4v5c0,1.14.33,1.79,1.26,1.79a3.6,3.6,0,0,0,1-.12l.07,1.26a4.11,4.11,0,0,1-1.48.23,2.28,2.28,0,0,1-1.8-.71,3.37,3.37,0,0,1-.65-2.39v-5h-1.43v-1.27h1.43v-2.2Z"/><path class="cls-14" d="M130.48,482.27a1,1,0,0,1-2.07,0,1,1,0,0,1,1-1A1,1,0,0,1,130.48,482.27Zm-1.86,11.78v-9.2h1.67v9.2Z"/><path class="cls-14" d="M141.39,489.37a4.5,4.5,0,0,1-4.58,4.89c-2.49,0-4.41-1.83-4.41-4.74,0-3.07,2-4.88,4.56-4.88S141.39,486.56,141.39,489.37Zm-7.3.1c0,2,1.16,3.53,2.79,3.53s2.8-1.5,2.8-3.57c0-1.56-.78-3.53-2.76-3.53S134.09,487.72,134.09,489.47Z"/><path class="cls-14" d="M143.5,487.34c0-.95,0-1.73-.08-2.49h1.48l.1,1.52h0a3.39,3.39,0,0,1,3-1.73c1.28,0,3.25.76,3.25,3.92v5.49h-1.67v-5.3c0-1.49-.55-2.72-2.13-2.72a2.38,2.38,0,0,0-2.24,1.71,2.57,2.57,0,0,0-.11.78v5.53H143.5Z"/><path class="cls-14" d="M163.16,494.05l-.13-1.16H163a3.42,3.42,0,0,1-2.81,1.37,2.63,2.63,0,0,1-2.81-2.65c0-2.22,2-3.44,5.52-3.42V488a1.89,1.89,0,0,0-2.09-2.13,4.57,4.57,0,0,0-2.39.68l-.38-1.1a5.65,5.65,0,0,1,3-.82c2.81,0,3.5,1.92,3.5,3.76v3.44a13.47,13.47,0,0,0,.15,2.21Zm-.25-4.7c-1.82,0-3.89.29-3.89,2.07a1.48,1.48,0,0,0,1.57,1.6,2.3,2.3,0,0,0,2.23-1.54,2,2,0,0,0,.09-.53Z"/><path class="cls-14" d="M167.23,487.72c0-1.08,0-2-.08-2.87h1.46l.06,1.81h.08a2.75,2.75,0,0,1,2.54-2,1.8,1.8,0,0,1,.48.06v1.58a2.43,2.43,0,0,0-.57-.06,2.35,2.35,0,0,0-2.25,2.15,5.63,5.63,0,0,0-.07.77v4.91h-1.65Z"/><path class="cls-14" d="M174.18,489.75a2.94,2.94,0,0,0,3.15,3.19,6.18,6.18,0,0,0,2.55-.47l.28,1.2a7.48,7.48,0,0,1-3,.57,4.28,4.28,0,0,1-4.53-4.64c0-2.77,1.64-5,4.32-5,3,0,3.8,2.64,3.8,4.33a5.88,5.88,0,0,1-.06.78Zm4.9-1.19c0-1.07-.43-2.72-2.32-2.72a2.77,2.77,0,0,0-2.56,2.72Z"/><path class="cls-14" d="M182.77,487.34c0-.95,0-1.73-.08-2.49h1.48l.1,1.52h0a3.38,3.38,0,0,1,3-1.73c1.27,0,3.25.76,3.25,3.92v5.49h-1.68v-5.3c0-1.49-.55-2.72-2.12-2.72a2.38,2.38,0,0,0-2.25,1.71,2.57,2.57,0,0,0-.11.78v5.53h-1.67Z"/><path class="cls-14" d="M198.41,494.05l-.14-1.16h-.06a3.42,3.42,0,0,1-2.81,1.37,2.63,2.63,0,0,1-2.81-2.65c0-2.22,2-3.44,5.53-3.42V488a1.9,1.9,0,0,0-2.09-2.13,4.52,4.52,0,0,0-2.39.68l-.38-1.1a5.65,5.65,0,0,1,3-.82c2.81,0,3.49,1.92,3.49,3.76v3.44a13.47,13.47,0,0,0,.15,2.21Zm-.25-4.7c-1.83,0-3.9.29-3.9,2.07a1.48,1.48,0,0,0,1.58,1.6,2.27,2.27,0,0,0,2.22-1.54,1.66,1.66,0,0,0,.1-.53Z"/><path class="cls-14" d="M81.84,534.77a19.59,19.59,0,0,1,3.17-.24,5.27,5.27,0,0,1,3.59,1.06,3.42,3.42,0,0,1,1.12,2.68,3.81,3.81,0,0,1-1,2.74,5.32,5.32,0,0,1-3.92,1.4,6,6,0,0,1-1.33-.11v5.13H81.84ZM83.49,541a5.83,5.83,0,0,0,1.37.13c2,0,3.21-1,3.21-2.74s-1.2-2.5-3-2.5a6.81,6.81,0,0,0-1.56.13Z"/><path class="cls-14" d="M91.59,541.1c0-1.08,0-2-.08-2.87H93L93,540h.08a2.75,2.75,0,0,1,2.54-2,1.75,1.75,0,0,1,.48.06v1.58a2.37,2.37,0,0,0-.57-.06,2.33,2.33,0,0,0-2.24,2.15,4.34,4.34,0,0,0-.08.77v4.91H91.59Z"/><path class="cls-14" d="M105.93,542.75a4.49,4.49,0,0,1-4.58,4.88c-2.49,0-4.4-1.82-4.4-4.73,0-3.07,2-4.88,4.56-4.88S105.93,539.94,105.93,542.75Zm-7.29.1c0,2,1.16,3.53,2.79,3.53s2.79-1.5,2.79-3.57c0-1.56-.78-3.53-2.75-3.53S98.64,541.1,98.64,542.85Z"/><path class="cls-14" d="M105.8,550.09a2.7,2.7,0,0,0,1.82-.71c.46-.53.63-1.25.63-3.46v-7.69h1.67v8.34c0,1.79-.28,2.95-1.1,3.78a4.26,4.26,0,0,1-2.85,1Zm4.31-14.44a1,1,0,0,1-1,1,1,1,0,0,1-1-1,1,1,0,0,1,1.07-1A1,1,0,0,1,110.11,535.65Z"/><path class="cls-14" d="M113.59,543.13a2.94,2.94,0,0,0,3.15,3.19,6.18,6.18,0,0,0,2.55-.47l.28,1.2a7.53,7.53,0,0,1-3.06.57A4.27,4.27,0,0,1,112,543c0-2.77,1.64-5,4.32-5,3,0,3.8,2.64,3.8,4.33a5.88,5.88,0,0,1-.06.78Zm4.9-1.19c0-1.07-.44-2.72-2.32-2.72a2.77,2.77,0,0,0-2.56,2.72Z"/><path class="cls-14" d="M128.73,547.08a6.09,6.09,0,0,1-2.64.54,4.38,4.38,0,0,1-4.58-4.7,4.67,4.67,0,0,1,4.94-4.88,5.56,5.56,0,0,1,2.32.48l-.38,1.29a3.87,3.87,0,0,0-1.94-.44,3.47,3.47,0,0,0-.06,6.92,4.79,4.79,0,0,0,2.06-.46Z"/><path class="cls-14" d="M133,535.59v2.64h2.39v1.27H133v5c0,1.14.32,1.79,1.25,1.79a3.54,3.54,0,0,0,1-.12l.08,1.26a4.15,4.15,0,0,1-1.48.23,2.32,2.32,0,0,1-1.81-.71,3.42,3.42,0,0,1-.64-2.39v-5h-1.43v-1.27h1.43V536Z"/><path class="cls-14" d="M137,545.72a4.37,4.37,0,0,0,2.2.66c1.22,0,1.79-.61,1.79-1.37s-.48-1.23-1.71-1.69c-1.66-.59-2.44-1.5-2.44-2.6,0-1.48,1.2-2.7,3.18-2.7a4.62,4.62,0,0,1,2.26.57l-.42,1.22a3.57,3.57,0,0,0-1.88-.53c-1,0-1.54.57-1.54,1.25s.55,1.1,1.75,1.56c1.59.61,2.41,1.4,2.41,2.77,0,1.62-1.25,2.76-3.44,2.76a5.23,5.23,0,0,1-2.58-.63Z"/><path class="cls-14" d="M83.38,594.26v7.58c0,2.87,1.27,4.08,3,4.08,1.9,0,3.12-1.25,3.12-4.08v-7.58h1.67v7.47c0,3.93-2.07,5.54-4.84,5.54s-4.6-1.5-4.6-5.47v-7.54Z"/><path class="cls-14" d="M95.67,594.26v12.8H94v-12.8Z"/><path class="cls-14" d="M102.36,605.05a5.83,5.83,0,0,0,3,.84c1.7,0,2.68-.9,2.68-2.19s-.68-1.88-2.41-2.54c-2.09-.74-3.38-1.83-3.38-3.63,0-2,1.65-3.48,4.14-3.48a5.73,5.73,0,0,1,2.83.63l-.45,1.35a5.11,5.11,0,0,0-2.44-.61c-1.74,0-2.41,1-2.41,1.92,0,1.19.78,1.78,2.55,2.47,2.16.83,3.27,1.88,3.27,3.76s-1.47,3.68-4.49,3.68a6.73,6.73,0,0,1-3.27-.81Z"/><path class="cls-14" d="M112.94,602.77A3,3,0,0,0,116.1,606a6.12,6.12,0,0,0,2.54-.47l.29,1.19a7.4,7.4,0,0,1-3.06.57,4.27,4.27,0,0,1-4.52-4.63c0-2.78,1.63-5,4.31-5,3,0,3.8,2.64,3.8,4.33a6,6,0,0,1-.06.78Zm4.91-1.2c0-1.06-.44-2.71-2.32-2.71a2.78,2.78,0,0,0-2.57,2.71Z"/><path class="cls-14" d="M123.55,595.23v2.64h2.39v1.27h-2.39v5c0,1.14.32,1.79,1.25,1.79a3.54,3.54,0,0,0,1-.12l.07,1.26a4.15,4.15,0,0,1-1.48.22,2.29,2.29,0,0,1-1.8-.7,3.37,3.37,0,0,1-.65-2.39v-5h-1.42v-1.27h1.42v-2.2Z"/><path class="cls-14" d="M129.83,595.23v2.64h2.4v1.27h-2.4v5c0,1.14.33,1.79,1.26,1.79a3.54,3.54,0,0,0,1-.12l.07,1.26a4.15,4.15,0,0,1-1.48.22,2.29,2.29,0,0,1-1.8-.7,3.37,3.37,0,0,1-.65-2.39v-5h-1.42v-1.27h1.42v-2.2Z"/><path class="cls-14" d="M136,595.29a1,1,0,0,1-2.07,0,1,1,0,0,1,1-1A1,1,0,0,1,136,595.29Zm-1.86,11.77v-9.19h1.67v9.19Z"/><path class="cls-14" d="M138.56,600.36c0-1,0-1.73-.08-2.49H140l.1,1.52h0a3.35,3.35,0,0,1,3-1.73c1.28,0,3.25.76,3.25,3.91v5.49h-1.67v-5.3c0-1.48-.55-2.71-2.13-2.71a2.38,2.38,0,0,0-2.24,1.71,2.57,2.57,0,0,0-.11.78v5.52h-1.67Z"/><path class="cls-14" d="M157,597.87c0,.66-.07,1.4-.07,2.53v5.33c0,2.11-.42,3.4-1.31,4.2a4.88,4.88,0,0,1-3.35,1.1,5.88,5.88,0,0,1-3.06-.76l.42-1.27a5.2,5.2,0,0,0,2.7.72c1.71,0,3-.89,3-3.21v-1h0a3.32,3.32,0,0,1-2.93,1.54c-2.28,0-3.91-1.94-3.91-4.49,0-3.11,2-4.88,4.14-4.88a3.07,3.07,0,0,1,2.87,1.6h0l.08-1.39Zm-1.73,3.63a2.27,2.27,0,0,0-.09-.76,2.41,2.41,0,0,0-2.34-1.77c-1.59,0-2.73,1.35-2.73,3.48,0,1.8.91,3.3,2.71,3.3a2.43,2.43,0,0,0,2.32-1.71,2.7,2.7,0,0,0,.13-.89Z"/><path class="cls-14" d="M159.49,605.35a4.34,4.34,0,0,0,2.21.67c1.21,0,1.78-.61,1.78-1.37s-.47-1.23-1.71-1.69c-1.65-.59-2.43-1.5-2.43-2.6,0-1.48,1.2-2.7,3.18-2.7a4.65,4.65,0,0,1,2.26.57l-.42,1.22a3.56,3.56,0,0,0-1.88-.54c-1,0-1.54.57-1.54,1.26s.55,1.1,1.75,1.56c1.59.6,2.41,1.4,2.41,2.77,0,1.61-1.26,2.75-3.44,2.75a5.2,5.2,0,0,1-2.58-.62Z"/></g></g></svg>