<?xml version="1.0" encoding="utf-8"?>
<!-- Generator: Adobe Illustrator 25.4.1, SVG Export Plug-In . SVG Version: 6.00 Build 0)  -->
<svg version="1.1" id="Layer_1" xmlns="http://www.w3.org/2000/svg" xmlns:xlink="http://www.w3.org/1999/xlink" x="0px" y="0px"
	 viewBox="0 0 800 800" style="enable-background:new 0 0 800 800;" xml:space="preserve">
<style type="text/css">
	.st0{fill:#323232;}
	.st1{fill:#DFAF26;}
</style>
<path class="st0" d="M440,400c10.9,0,20.8,4.4,28,11.5c0.1,0.1,0.2,0.2,0.3,0.3l120,120c15.6,15.6,15.6,40.9,0,56.6
	s-40.9,15.6-56.6,0L480,536.6V760c0,22.1-17.9,40-40,40c-22.1,0-40-17.9-40-40V536.6l-51.7,51.7c-15.6,15.6-40.9,15.6-56.6,0
	c-15.6-15.6-15.6-40.9,0-56.6l120-120C419.2,404.2,429.4,400,440,400z"/>
<path class="st1" d="M0,320C0,144.7,137.4,0,310,0c146.4,0,267.5,104.2,300.9,242.7c0.9,3.6,4.1,6.2,7.8,6.4
	C720.8,253.8,800,340.7,800,444.4C800,551.1,716.3,640,610,640h-9.8c-2.8,0-5-2.2-5-5c0-1.9,1.1-3.6,2.8-4.6
	c6.7-3.6,13-8.2,18.6-13.9c31.2-31.2,31.2-81.9,0-113.1l-120-120C482.1,369,462.1,360,440,360c-22.1,0-42.1,9-56.6,23.5l-120,120
	c-31.2,31.2-31.2,81.9,0,113.1c6.4,6.4,13.6,11.5,21.3,15.3c1.3,0.6,2.1,1.9,2.1,3.3c0,2.1-1.8,3.8-3.9,3.6
	C123.3,624.6,0,486.1,0,320z"/>
</svg>
