<?xml version="1.0" encoding="utf-8"?>
<!-- Generator: Adobe Illustrator 25.4.1, SVG Export Plug-In . SVG Version: 6.00 Build 0)  -->
<svg version="1.1" id="Layer_1" xmlns="http://www.w3.org/2000/svg" xmlns:xlink="http://www.w3.org/1999/xlink" x="0px" y="0px"
	 viewBox="0 0 800 800" style="enable-background:new 0 0 800 800;" xml:space="preserve">
<style type="text/css">
	.st0{fill:#FFFFFF;}
	.st1{fill:#F44336;}
	.st2{fill:#B71C1C;}
	.st3{fill:#B0BEC5;}
	.st4{fill:#90A4AE;}
</style>
<path class="st0" d="M45.6,698.1V236.5h716.7v461.5c0,42.3-33.9,76.9-75.4,76.9H121.1C79.6,775,45.6,740.4,45.6,698.1L45.6,698.1z"
	/>
<path class="st1" d="M762.3,159.6V275H45.6V159.6c0-42.3,33.9-76.9,75.4-76.9h565.8C728.3,82.7,762.3,117.3,762.3,159.6L762.3,159.6
	z"/>
<path class="st2" d="M517.1,159.6c0,31.9,25.3,57.7,56.6,57.7c31.2,0,56.6-25.8,56.6-57.7s-25.3-57.7-56.6-57.7
	C542.4,101.9,517.1,127.8,517.1,159.6z"/>
<path class="st2" d="M177.6,159.6c0,31.9,25.3,57.7,56.6,57.7s56.6-25.8,56.6-57.7s-25.3-57.7-56.6-57.7S177.6,127.8,177.6,159.6z"
	/>
<path class="st3" d="M573.7,25C552.9,25,536,42.3,536,63.5v96.2c0,21.2,17,38.5,37.7,38.5s37.7-17.3,37.7-38.5V63.5
	C611.4,42.3,594.4,25,573.7,25z M234.2,25c-20.7,0-37.7,17.3-37.7,38.5v96.2c0,21.2,17,38.5,37.7,38.5s37.7-17.3,37.7-38.5V63.5
	C271.9,42.3,255,25,234.2,25z"/>
<path class="st4" d="M196.5,351.9h75.4v76.9h-75.4V351.9z M309.6,351.9h75.4v76.9h-75.4V351.9z M422.8,351.9h75.4v76.9h-75.4V351.9z
	 M536,351.9h75.4v76.9H536V351.9z M196.5,467.3h75.4v76.9h-75.4V467.3z M309.6,467.3h75.4v76.9h-75.4V467.3z M422.8,467.3h75.4v76.9
	h-75.4V467.3z M536,467.3h75.4v76.9H536V467.3z M196.5,582.7h75.4v76.9h-75.4V582.7z M309.6,582.7h75.4v76.9h-75.4V582.7z
	 M422.8,582.7h75.4v76.9h-75.4V582.7z M536,582.7h75.4v76.9H536V582.7z"/>
</svg>
