<?xml version="1.0" encoding="utf-8"?>
<!-- Uploaded to: SVG Repo, www.svgrepo.com, Generator: SVG Repo Mixer Tools -->
<svg fill="#000000" height="800px" width="800px" version="1.1" xmlns="http://www.w3.org/2000/svg" xmlns:xlink="http://www.w3.org/1999/xlink" 
	 viewBox="0 0 127.5 94.8" xml:space="preserve">
<g id="_x31_">
</g>
<g id="Child">
</g>
<g id="Man">
	<g>
		<g>
			<circle cx="63.5" cy="9.1" r="7.6"/>
			<path d="M73.1,18.7h-19c-5.3,0-9.5,4.2-9.5,9.5v23.2c0,1.8,1.5,3.4,3.4,3.4c1.9,0,3.4-1.5,3.4-3.4V30.1c0-0.5,0.4-0.9,0.9-0.9
				c0.5,0,0.9,0.4,0.9,0.9v57.6c0,2.8,2.1,5.2,4.7,5.2c2.6,0,4.7-2.3,4.7-5.2V54.9c0-0.5,0.4-0.9,0.9-0.9c0.5,0,0.9,0.4,0.9,0.9
				v32.9c0,2.8,2.1,5.2,4.7,5.2c2.6,0,4.7-2.3,4.7-5.2V30.1c0-0.5,0.4-0.9,0.9-0.9c0.5,0,0.9,0.4,0.9,0.9v21.4
				c0,1.8,1.5,3.4,3.4,3.4c1.9,0,3.4-1.5,3.4-3.4V28.2C82.6,22.9,78.3,18.7,73.1,18.7z"/>
		</g>
	</g>
	<g>
		<circle cx="105.9" cy="9.1" r="7.6"/>
		<path d="M115.4,18.7h-19c-5.3,0-9.5,4.2-9.5,9.5v23.2c0,1.8,1.5,3.4,3.4,3.4s3.4-1.5,3.4-3.4V30.1c0-0.5,0.4-0.9,0.9-0.9
			s0.9,0.4,0.9,0.9v57.6c0,2.8,2.1,5.2,4.7,5.2c2.6,0,4.7-2.3,4.7-5.2V54.9c0-0.5,0.4-0.9,0.9-0.9s0.9,0.4,0.9,0.9v32.9
			c0,2.8,2.1,5.2,4.7,5.2c2.6,0,4.7-2.3,4.7-5.2V30.1c0-0.5,0.4-0.9,0.9-0.9s0.9,0.4,0.9,0.9v21.4c0,1.8,1.5,3.4,3.4,3.4
			s3.4-1.5,3.4-3.4V28.2C124.9,22.9,120.6,18.7,115.4,18.7z"/>
	</g>
	<g>
		<circle cx="21.2" cy="9.1" r="7.6"/>
		<path d="M30.7,18.7h-19c-5.3,0-9.5,4.2-9.5,9.5v23.2c0,1.8,1.5,3.4,3.4,3.4c1.9,0,3.4-1.5,3.4-3.4V30.1c0-0.5,0.4-0.9,0.9-0.9
			c0.5,0,0.9,0.4,0.9,0.9v57.6c0,2.8,2.1,5.2,4.7,5.2c2.6,0,4.7-2.3,4.7-5.2V54.9c0-0.5,0.4-0.9,0.9-0.9c0.5,0,0.9,0.4,0.9,0.9v32.9
			c0,2.8,2.1,5.2,4.7,5.2s4.7-2.3,4.7-5.2V30.1c0-0.5,0.4-0.9,0.9-0.9c0.5,0,0.9,0.4,0.9,0.9v21.4c0,1.8,1.5,3.4,3.4,3.4
			c1.9,0,3.4-1.5,3.4-3.4V28.2C40.2,22.9,35.9,18.7,30.7,18.7z"/>
	</g>
</g>
</svg>