<svg xmlns="http://www.w3.org/2000/svg" viewBox="0 0 167.01 173.56"><defs><style>.cls-1{fill:none;stroke:#167ce9;stroke-miterlimit:10;stroke-width:5px;}</style></defs><g id="Layer_2" data-name="Layer 2"><g id="Layer_1-2" data-name="Layer 1"><g id="Layer_2-2" data-name="Layer 2"><g id="Layer_1-2-2" data-name="Layer 1-2"><path class="cls-1" d="M14.48,155.84A13.75,13.75,0,0,1,8,152.59a14,14,0,0,1-4.06-6.9,18.49,18.49,0,0,1-.4-6.91A107.8,107.8,0,0,1,6.36,119.7c1.55-6,2.5-7.56,4.06-8.53a7.21,7.21,0,0,1,6.9-.4,7.59,7.59,0,0,1,3.25,4.06,66.37,66.37,0,0,1,4.87,17.86c.85,6.63.6,9.16.41,10.56-.41,2.93-.82,5.64-2.84,8.12A13.32,13.32,0,0,1,14.48,155.84Z"/><path class="cls-1" d="M14.68,173.09V155.63"/><path class="cls-1" d="M34.58,160.51h97.86"/><path class="cls-1" d="M23.21,171.06H143.8"/><path class="cls-1" d="M164.51,173.5V70.36"/><path class="cls-1" d="M128.78,76.86h33.3"/><rect class="cls-1" x="64.63" y="126.8" width="38.57" height="32.08"/><rect class="cls-1" x="135.28" y="95.54" width="12.59" height="17.46" rx="5.83"/><rect class="cls-1" x="135.28" y="129.65" width="12.59" height="17.46" rx="5.83"/><rect class="cls-1" x="91.02" y="92.7" width="12.59" height="17.46" rx="5.83"/><rect class="cls-1" x="91.02" y="60.62" width="12.59" height="17.46" rx="5.83"/><rect class="cls-1" x="63.41" y="92.7" width="12.59" height="17.46" rx="5.83"/><rect class="cls-1" x="63.41" y="60.62" width="12.59" height="17.46" rx="5.83"/><path class="cls-1" d="M119.44,149.54V64.27"/><path class="cls-1" d="M125.94,58.59,83.3,33,41.07,58.59"/><path class="cls-1" d="M2.5,103.25V69.15"/><path class="cls-1" d="M38.64,77.27H5.75"/><path class="cls-1" d="M47.57,152.79V67.52"/><path class="cls-1" d="M31.33,112.19V96a5.47,5.47,0,0,0,0-.81,3.1,3.1,0,0,0-.41-1.22,2.89,2.89,0,0,0-1.21-.4H21.18a3.66,3.66,0,0,0-.81,0,1.8,1.8,0,0,0-.82.4,5.13,5.13,0,0,0-.4,1.63v5.28"/><path class="cls-1" d="M78.43,143.45H88.58"/><path class="cls-1" d="M56.5,126.8h54"/><path class="cls-1" d="M101.31,13.5h8.48a2.37,2.37,0,0,1,.85.32,1.18,1.18,0,0,1,.22.77,3.38,3.38,0,0,1-.18.44l-.29.77-1.09,2.79,1.29,4,.24.77a5.28,5.28,0,0,1,.24.77,1.48,1.48,0,0,1-.22.85,2.93,2.93,0,0,1-.87.22h-1.44l-12,.05h-1.2a3.39,3.39,0,0,1-.9-.15,1.36,1.36,0,0,1-.34-.65,3.21,3.21,0,0,1,0-.62V20.94"/><circle class="cls-1" cx="83.7" cy="2.85" r="0.35"/><path class="cls-1" d="M84,8.11H98.3a2.17,2.17,0,0,1,2.17,2.17V17a2.32,2.32,0,0,1-2.31,2.32H84Z"/><path class="cls-1" d="M83.7,2.89v28.9"/><path class="cls-1" d="M83.3,126.8v33.71"/></g></g></g></g></svg>