<?xml version="1.0" encoding="utf-8"?>
<!-- Generator: Adobe Illustrator 25.4.1, SVG Export Plug-In . SVG Version: 6.00 Build 0)  -->
<svg version="1.1" id="Layer_1" xmlns="http://www.w3.org/2000/svg" xmlns:xlink="http://www.w3.org/1999/xlink" x="0px" y="0px"
	 viewBox="0 0 509 509" style="enable-background:new 0 0 509 509;" xml:space="preserve">
<style type="text/css">
	.st0{fill:#EA5F6E;}
	.st1{fill:#EEB490;}
	.st2{fill:#FACCB4;}
	.st3{fill:#8A6753;}
	.st4{fill:#FF667C;}
	.st5{fill:#7D5E4A;}
</style>
<path class="st0" d="M435.5,388.7c-4.6-17.9-17.9-32.7-35.7-38.8l-67.4-23.6L295,288.6h-40.6h-40.6l-37.4,38L109,350.2
	c-17.6,6.2-31.1,20.6-35.7,38.8l-20,79.8h402.6L435.5,388.7z"/>
<g>
	<rect x="200.7" y="285.6" class="st1" width="104.2" height="64.8"/>
	<ellipse class="st1" cx="183.1" cy="214.1" rx="17.6" ry="25.7"/>
	<ellipse class="st1" cx="322.6" cy="214.1" rx="17.6" ry="25.7"/>
</g>
<path class="st2" d="M186.4,128.7v127.2c0,36.4,29.8,65.9,66.6,65.9l0,0c36.8,0,66.6-29.5,66.6-65.9V128.7H186.4z"/>
<path class="st3" d="M331,119.6c-16.8-55.2-78.2-52.8-78.2-52.8s-61.2-2.4-78,52.8c-12.5,40.7,11.6,84.6,11.6,84.6s4.9-49.5,19-59.7
	c14.1-9.9,36.6,0,47.7,0c11.1,0,33.6-9.9,47.7,0c14.1,9.9,19,59.7,19,59.7S343.2,160.6,331,119.6z"/>
<g>
	<polygon class="st4" points="200.7,302 254.3,350.4 220.2,398.6 176.4,326.6 	"/>
	<polygon class="st4" points="308,302 254.3,350.4 288.2,398.6 332.3,326.6 	"/>
</g>
<g>
	<path class="st5" d="M252.7,136.5c-3,0-5.4-2.4-5.4-5.4v-23.6c0-2.9,2.4-5.4,5.4-5.4c3,0,5.4,2.4,5.4,5.4v23.6
		C258.1,134,255.7,136.5,252.7,136.5z"/>
	<path class="st5" d="M224.8,133.5c-3,0-5.4-2.4-5.4-5.4v-23.6c0-2.9,2.4-5.4,5.4-5.4c3,0,5.4,2.4,5.4,5.4v23.6
		C230.3,131.1,227.8,133.5,224.8,133.5z"/>
	<path class="st5" d="M280.6,133.5c-3,0-5.4-2.4-5.4-5.4v-23.6c0-2.9,2.4-5.4,5.4-5.4s5.4,2.4,5.4,5.4v23.6
		C286,131.1,283.6,133.5,280.6,133.5z"/>
</g>
</svg>
