<?xml version="1.0" encoding="utf-8"?>
<!-- Generator: Adobe Illustrator 25.4.1, SVG Export Plug-In . SVG Version: 6.00 Build 0)  -->
<svg version="1.1" id="Layer_1" xmlns="http://www.w3.org/2000/svg" xmlns:xlink="http://www.w3.org/1999/xlink" x="0px" y="0px"
	 viewBox="0 0 800 800" style="enable-background:new 0 0 800 800;" xml:space="preserve">
<style type="text/css">
	.st0{fill:#5B7A7F;}
	.st1{fill:#90B5BF;}
	.st2{fill:#769CA5;}
	.st3{fill:#F4C064;}
	.st4{fill:#F4AB53;}
	.st5{fill:#FFA233;}
	.st6{fill:#FFC248;}
</style>
<path class="st0" d="M377.1,432.6v123.5v169.4c0,17.4-16.6,31.4-36.7,30.8c-19.2-0.6-34.1-14.8-34.1-31.5V586.9
	c0-17-15.9-30.8-35.4-30.8l0,0c-19.6,0-35.4,13.8-35.4,30.8v138.6c0,17.4-16.6,31.4-36.7,30.8c-19.2-0.6-34.1-14.8-34.1-31.5V556.1
	V432.6H377.1z"/>
<path class="st1" d="M430.2,309.7v154H111.3v-154c0-51,47.6-92.4,106.3-92.4h106.3C382.6,217.3,430.2,258.7,430.2,309.7z"/>
<path class="st2" d="M270.8,463.7H111.3v-154c0-51,47.6-92.4,106.3-92.4h53.2L270.8,463.7L270.8,463.7z"/>
<path class="st3" d="M341.6,109.5c0,34-31.7,61.6-70.9,61.6s-70.9-27.6-70.9-61.6s31.7-61.6,70.9-61.6S341.6,75.5,341.6,109.5z
	 M164.4,340.5h-53.2v169.4c0,17,15.9,30.8,35.4,30.8s35.4-13.8,35.4-30.8v-154C182.2,347.4,174.2,340.5,164.4,340.5z M518.8,432.9
	h-88.6v-92.4h-53.2c-9.8,0-17.7,6.9-17.7,15.4v107.8c0,17,15.9,30.8,35.4,30.8h124c19.6,0,35.4-13.8,35.4-30.8l0,0
	C554.3,446.7,538.4,432.9,518.8,432.9z"/>
<path class="st4" d="M270.8,47.9v123.2c-39.1,0-70.9-27.6-70.9-61.6S231.6,47.9,270.8,47.9z"/>
<path class="st5" d="M642.8,309.7c19.6,0,35.4,13.8,35.4,30.8c0,17-15.9,30.8-35.4,30.8H536.5c-19.6,0-35.4-13.8-35.4-30.8
	c0-17,15.9-30.8,35.4-30.8c-19.6,0-35.4-13.8-35.4-30.8c0-17,15.9-30.8,35.4-30.8c-19.6,0-35.4-13.8-35.4-30.8
	c0-17,15.9-30.8,35.4-30.8h106.3c19.6,0,35.4,13.8,35.4,30.8c0,17-15.9,30.8-35.4,30.8c19.6,0,35.4,13.8,35.4,30.8
	C678.3,295.9,662.4,309.7,642.8,309.7z M502.4,99.5c3.4,16.8,21.8,27.9,41.1,25l104.7-16c19.3-3,32.1-18.9,28.7-35.7
	c-3.4-16.8-21.8-27.9-41.1-25l-104.7,16C511.9,66.7,499,82.7,502.4,99.5L502.4,99.5z"/>
<path class="st6" d="M678.3,340.5L678.3,340.5H501.1l0,0c0-17,15.9-30.8,35.4-30.8h106.3C662.4,309.7,678.3,323.5,678.3,340.5z
	 M642.8,248.1H536.5c-19.6,0-35.4,13.8-35.4,30.8l0,0h177.2l0,0C678.3,261.9,662.4,248.1,642.8,248.1z M642.8,186.5H536.5
	c-19.6,0-35.4,13.8-35.4,30.8l0,0h177.2l0,0C678.3,200.3,662.4,186.5,642.8,186.5z M502.4,99.5l174.5-26.7l0,0
	c-3.4-16.8-21.8-27.9-41.1-25l-104.7,16C511.9,66.7,499,82.7,502.4,99.5L502.4,99.5z"/>
</svg>
