<?xml version="1.0" encoding="utf-8"?>
<!-- Generator: Adobe Illustrator 25.4.1, SVG Export Plug-In . SVG Version: 6.00 Build 0)  -->
<svg version="1.1" id="Layer_1" xmlns="http://www.w3.org/2000/svg" xmlns:xlink="http://www.w3.org/1999/xlink" x="0px" y="0px"
	 viewBox="0 0 800 800" style="enable-background:new 0 0 800 800;" xml:space="preserve">
<style type="text/css">
	.st0{fill:#464547;}
</style>
<path class="st0" d="M0,636.8c0,39.5,13.9,73.1,41.6,100.8s61.3,41.6,100.8,41.6H616c38.9,0,72.3-13.9,100-41.6
	c27.7-27.7,41.6-61.3,41.6-100.8V432l-94.4,79.2v125.6c0,13.3-4.5,24.5-13.6,33.6c-9.1,9.1-20.3,13.9-33.6,14.4H142.4
	c-13.3,0-24.5-4.8-33.6-14.4c-9.1-9.6-13.6-20.8-13.6-33.6V163.2c0-12.8,4.5-24,13.6-33.6s20.3-14.1,33.6-13.6h236.8V21.6H142.4
	c-39.5,0-73.1,13.9-100.8,41.6S0,124.3,0,163.2L0,636.8L0,636.8z M142.4,495.2c0,45.9,9.1,89.9,27.2,132
	c8.5-49.1,27.2-93.6,56-133.6s64.5-72.3,107.2-96.8c42.7-24.5,89.6-38.4,140.8-41.6v140l284-236.8l-284-236.8v141.6
	c-44.8,0-87.7,8.8-128.8,26.4s-76.3,41.3-105.6,71.2s-53.1,65.1-71.2,105.6C149.9,406.9,141.3,449.9,142.4,495.2L142.4,495.2z
	 M800,552L800,552L800,552L800,552z"/>
</svg>
