<?xml version="1.0" encoding="utf-8"?>
<!-- Generator: Adobe Illustrator 25.4.1, SVG Export Plug-In . SVG Version: 6.00 Build 0)  -->
<svg version="1.1" id="Layer_1" xmlns="http://www.w3.org/2000/svg" xmlns:xlink="http://www.w3.org/1999/xlink" x="0px" y="0px"
	 viewBox="0 0 800 800" style="enable-background:new 0 0 800 800;" xml:space="preserve">
<style type="text/css">
	.st0{fill:#ED1C24;}
</style>
<path class="st0" d="M608.7,26H173.7c-74,0-130.5,48.3-130.5,111.5v222.9h374.2L317.2,275c-17.4-14.9-17.4-37.2,0-52
	c17.4-14.9,43.5-14.9,60.9,0l174,148.6c17.4,14.9,17.4,37.2,0,52l0,0l-174,148.6c-17.4,14.9-43.5,14.9-60.9,0
	c-17.4-14.9-17.4-37.2,0-52l100.1-85.5H43.1v222.9c0,63.2,56.6,111.5,130.5,111.5h435.1c74,0,130.5-48.3,130.5-111.5V137.5
	C739.3,74.3,682.7,26,608.7,26z"/>
</svg>
