<svg id="Layer_1" data-name="Layer 1" xmlns="http://www.w3.org/2000/svg" viewBox="0 0 3782.66 985.5"><defs><style>.cls-1{fill:#fff;}</style></defs><path class="cls-1" d="M-2444.76-44.1V941.4H1337.9V-44.1ZM-1748,699.75-1933.44,565l-185.42,134.72,70.82-218-185.41-134.71h229.19l70.82-218,70.82,218h229.19l-185.41,134.71Zm682,0L-1251.49,565l-185.42,134.72,70.82-218L-1551.5,347.07h229.19l70.82-218,70.82,218h229.19l-185.41,134.71Zm698.06,0L-553.43,565-738.85,699.75l70.82-218L-853.44,347.07h229.19l70.82-218,70.82,218h229.19L-438.83,481.78Zm682,0L128.52,565-56.9,699.75l70.82-218L-171.49,347.07H57.7l70.82-218,70.82,218h229.2L243.13,481.78Zm676.32,0L804.85,565,619.42,699.75l70.82-218L504.84,347.07H734l70.82-218,70.82,218h229.19L919.45,481.78Z" transform="translate(2444.76 44.1)"/></svg>