<?xml version="1.0" encoding="utf-8"?>
<!-- Generator: Adobe Illustrator 25.4.1, SVG Export Plug-In . SVG Version: 6.00 Build 0)  -->
<svg version="1.1" id="Layer_1" xmlns="http://www.w3.org/2000/svg" xmlns:xlink="http://www.w3.org/1999/xlink" x="0px" y="0px"
	 viewBox="0 0 800 800" style="enable-background:new 0 0 800 800;" xml:space="preserve">
<style type="text/css">
	.st0{fill:#3B3637;}
</style>
<path class="st0" d="M798.7,303.5c-3-8.9-10.7-15.4-19.9-16.8l-245.9-37.6L422.6,14.4C418.5,5.6,409.7,0,400,0
	c-9.7,0-18.5,5.6-22.6,14.4L267.1,249.1L21.2,286.7c-9.3,1.4-16.9,7.9-19.9,16.8c-3,8.9-0.7,18.7,5.8,25.4l178.7,183.2l-42.2,258.8
	c-1.6,9.5,2.4,19,10.3,24.5c4.3,3,9.3,4.6,14.4,4.6c4.1,0,8.3-1,12.1-3.1L400,675.3l219.6,121.5c3.8,2.1,8,3.1,12.1,3.1
	c5,0,10.1-1.5,14.4-4.6c7.8-5.5,11.8-15,10.3-24.5l-42.2-258.8l178.7-183.2C799.4,322.1,801.6,312.3,798.7,303.5z"/>
</svg>
