<svg xmlns="http://www.w3.org/2000/svg" xmlns:xlink="http://www.w3.org/1999/xlink" viewBox="0 0 691.33 666.56"><defs><style>.cls-1{fill:url(#linear-gradient);}.cls-2{fill:none;stroke:#2e3192;stroke-linecap:round;stroke-linejoin:round;stroke-width:66.67px;}</style><linearGradient id="linear-gradient" x1="33.33" y1="333.28" x2="658" y2="333.28" gradientTransform="translate(707.8 17.97) rotate(95)" gradientUnits="userSpaceOnUse"><stop offset="0" stop-color="#fff"/><stop offset="1" stop-color="#f7931e"/></linearGradient></defs><g id="Layer_2" data-name="Layer 2"><g id="Layer_1-2" data-name="Layer 1"><path id="secondary" class="cls-1" d="M318.48,644.43c-33.2-2.91-56.94-33.76-85.35-45.62s-68.78-9.36-92.08-29.8-26.19-60.18-42.22-87.35-50.07-47.21-57.42-78,14.15-62.34,17.06-95.55-12.46-68-.54-97.08,49.64-43.51,70.09-66.81,29.48-61.67,56.74-78.69,64.77-6,95.86-13.36,59.1-33,92.31-30.07,57.27,33.78,85.68,45.64,68.78,9.36,92.08,29.8,25.86,60.15,42.22,87.35,49.74,47.18,57.09,77.94-14.57,63.3-17.39,95.51,12.45,68,.54,97.09S583.5,499,563.39,522.31,533.85,584.64,506.65,601s-64.77,6-95.86,13.37S351.69,647.33,318.48,644.43Z"/><polyline id="primary" class="cls-2" points="212.33 333.24 312.33 433.24 479 266.57"/><path id="primary-2" class="cls-2" d="M658,333.24c0,33.33-28.67,59.67-38,89s-3.33,69.33-21.67,94.33S540.67,547.91,515,566.24s-42.67,54-72.67,64-63.33-8.67-96.66-8.67-66.67,18.34-96.67,9-47.67-45.66-72.67-64-64-24-83.33-49.66-11.67-64-21.67-94.34-38-56-38-89.33,28.67-60,38-89.33S74.67,174.57,93,149.57s57.67-31,83.33-49.66S219,46.24,249,36.24s64.33,9,96.67,9,66.66-18.33,96.66-9S490,81.91,515,99.91s64.67,24,83.33,49.66,11.67,64,21.67,94.34S658,299.91,658,333.24Z"/></g></g></svg>